G04 #@! TF.FileFunction,Legend,Top*
%FSLAX46Y46*%
G04 Gerber Fmt 4.6, Leading zero omitted, Abs format (unit mm)*
G04 Created by KiCad (PCBNEW 4.0.2-stable) date Lundi 27 juin 2016 03:17:05*
%MOMM*%
G01*
G04 APERTURE LIST*
%ADD10C,0.100000*%
%ADD11C,0.150000*%
%ADD12C,0.200000*%
%ADD13C,0.160000*%
G04 APERTURE END LIST*
D10*
D11*
X52885715Y-68771429D02*
X52885715Y-68171429D01*
X53514286Y-68771429D02*
X53314286Y-68485714D01*
X53171429Y-68771429D02*
X53171429Y-68171429D01*
X53400001Y-68171429D01*
X53457143Y-68200000D01*
X53485715Y-68228571D01*
X53514286Y-68285714D01*
X53514286Y-68371429D01*
X53485715Y-68428571D01*
X53457143Y-68457143D01*
X53400001Y-68485714D01*
X53171429Y-68485714D01*
X54171429Y-68828571D02*
X54114286Y-68800000D01*
X54057143Y-68742857D01*
X53971429Y-68657143D01*
X53914286Y-68628571D01*
X53857143Y-68628571D01*
X53885715Y-68771429D02*
X53828572Y-68742857D01*
X53771429Y-68685714D01*
X53742858Y-68571429D01*
X53742858Y-68371429D01*
X53771429Y-68257143D01*
X53828572Y-68200000D01*
X53885715Y-68171429D01*
X54000001Y-68171429D01*
X54057143Y-68200000D01*
X54114286Y-68257143D01*
X54142858Y-68371429D01*
X54142858Y-68571429D01*
X54114286Y-68685714D01*
X54057143Y-68742857D01*
X54000001Y-68771429D01*
X53885715Y-68771429D01*
X62257142Y-68171429D02*
X62628571Y-68171429D01*
X62428571Y-68400000D01*
X62514285Y-68400000D01*
X62571428Y-68428571D01*
X62599999Y-68457143D01*
X62628571Y-68514286D01*
X62628571Y-68657143D01*
X62599999Y-68714286D01*
X62571428Y-68742857D01*
X62514285Y-68771429D01*
X62342857Y-68771429D01*
X62285714Y-68742857D01*
X62257142Y-68714286D01*
X62800000Y-68171429D02*
X63000000Y-68771429D01*
X63200000Y-68171429D01*
X63342857Y-68171429D02*
X63714286Y-68171429D01*
X63514286Y-68400000D01*
X63600000Y-68400000D01*
X63657143Y-68428571D01*
X63685714Y-68457143D01*
X63714286Y-68514286D01*
X63714286Y-68657143D01*
X63685714Y-68714286D01*
X63657143Y-68742857D01*
X63600000Y-68771429D01*
X63428572Y-68771429D01*
X63371429Y-68742857D01*
X63342857Y-68714286D01*
D12*
X68423810Y-70671428D02*
X68461905Y-70557142D01*
X68461905Y-70366666D01*
X68423810Y-70290476D01*
X68385714Y-70252380D01*
X68309524Y-70214285D01*
X68233333Y-70214285D01*
X68157143Y-70252380D01*
X68119048Y-70290476D01*
X68080952Y-70366666D01*
X68042857Y-70519047D01*
X68004762Y-70595238D01*
X67966667Y-70633333D01*
X67890476Y-70671428D01*
X67814286Y-70671428D01*
X67738095Y-70633333D01*
X67700000Y-70595238D01*
X67661905Y-70519047D01*
X67661905Y-70328571D01*
X67700000Y-70214285D01*
X68461905Y-69871428D02*
X67661905Y-69871428D01*
X67661905Y-69680952D01*
X67700000Y-69566666D01*
X67776190Y-69490475D01*
X67852381Y-69452380D01*
X68004762Y-69414285D01*
X68119048Y-69414285D01*
X68271429Y-69452380D01*
X68347619Y-69490475D01*
X68423810Y-69566666D01*
X68461905Y-69680952D01*
X68461905Y-69871428D01*
X68233333Y-69109523D02*
X68233333Y-68728571D01*
X68461905Y-69185714D02*
X67661905Y-68919047D01*
X68461905Y-68652380D01*
X68423810Y-67952381D02*
X68461905Y-67838095D01*
X68461905Y-67647619D01*
X68423810Y-67571429D01*
X68385714Y-67533333D01*
X68309524Y-67495238D01*
X68233333Y-67495238D01*
X68157143Y-67533333D01*
X68119048Y-67571429D01*
X68080952Y-67647619D01*
X68042857Y-67800000D01*
X68004762Y-67876191D01*
X67966667Y-67914286D01*
X67890476Y-67952381D01*
X67814286Y-67952381D01*
X67738095Y-67914286D01*
X67700000Y-67876191D01*
X67661905Y-67800000D01*
X67661905Y-67609524D01*
X67700000Y-67495238D01*
X68385714Y-66695238D02*
X68423810Y-66733333D01*
X68461905Y-66847619D01*
X68461905Y-66923809D01*
X68423810Y-67038095D01*
X68347619Y-67114286D01*
X68271429Y-67152381D01*
X68119048Y-67190476D01*
X68004762Y-67190476D01*
X67852381Y-67152381D01*
X67776190Y-67114286D01*
X67700000Y-67038095D01*
X67661905Y-66923809D01*
X67661905Y-66847619D01*
X67700000Y-66733333D01*
X67738095Y-66695238D01*
X68461905Y-65971428D02*
X68461905Y-66352381D01*
X67661905Y-66352381D01*
X67700000Y-64909523D02*
X67661905Y-64985714D01*
X67661905Y-65099999D01*
X67700000Y-65214285D01*
X67776190Y-65290476D01*
X67852381Y-65328571D01*
X68004762Y-65366666D01*
X68119048Y-65366666D01*
X68271429Y-65328571D01*
X68347619Y-65290476D01*
X68423810Y-65214285D01*
X68461905Y-65099999D01*
X68461905Y-65023809D01*
X68423810Y-64909523D01*
X68385714Y-64871428D01*
X68119048Y-64871428D01*
X68119048Y-65023809D01*
X68461905Y-64528571D02*
X67661905Y-64528571D01*
X68461905Y-64071428D01*
X67661905Y-64071428D01*
X68461905Y-63690476D02*
X67661905Y-63690476D01*
X67661905Y-63500000D01*
X67700000Y-63385714D01*
X67776190Y-63309523D01*
X67852381Y-63271428D01*
X68004762Y-63233333D01*
X68119048Y-63233333D01*
X68271429Y-63271428D01*
X68347619Y-63309523D01*
X68423810Y-63385714D01*
X68461905Y-63500000D01*
X68461905Y-63690476D01*
X67661905Y-62666667D02*
X68461905Y-62400000D01*
X67661905Y-62133333D01*
X68385714Y-61409524D02*
X68423810Y-61447619D01*
X68461905Y-61561905D01*
X68461905Y-61638095D01*
X68423810Y-61752381D01*
X68347619Y-61828572D01*
X68271429Y-61866667D01*
X68119048Y-61904762D01*
X68004762Y-61904762D01*
X67852381Y-61866667D01*
X67776190Y-61828572D01*
X67700000Y-61752381D01*
X67661905Y-61638095D01*
X67661905Y-61561905D01*
X67700000Y-61447619D01*
X67738095Y-61409524D01*
X68385714Y-60609524D02*
X68423810Y-60647619D01*
X68461905Y-60761905D01*
X68461905Y-60838095D01*
X68423810Y-60952381D01*
X68347619Y-61028572D01*
X68271429Y-61066667D01*
X68119048Y-61104762D01*
X68004762Y-61104762D01*
X67852381Y-61066667D01*
X67776190Y-61028572D01*
X67700000Y-60952381D01*
X67661905Y-60838095D01*
X67661905Y-60761905D01*
X67700000Y-60647619D01*
X67738095Y-60609524D01*
X67761905Y-49566667D02*
X68561905Y-49300000D01*
X67761905Y-49033333D01*
X68485714Y-48309524D02*
X68523810Y-48347619D01*
X68561905Y-48461905D01*
X68561905Y-48538095D01*
X68523810Y-48652381D01*
X68447619Y-48728572D01*
X68371429Y-48766667D01*
X68219048Y-48804762D01*
X68104762Y-48804762D01*
X67952381Y-48766667D01*
X67876190Y-48728572D01*
X67800000Y-48652381D01*
X67761905Y-48538095D01*
X67761905Y-48461905D01*
X67800000Y-48347619D01*
X67838095Y-48309524D01*
X68485714Y-47509524D02*
X68523810Y-47547619D01*
X68561905Y-47661905D01*
X68561905Y-47738095D01*
X68523810Y-47852381D01*
X68447619Y-47928572D01*
X68371429Y-47966667D01*
X68219048Y-48004762D01*
X68104762Y-48004762D01*
X67952381Y-47966667D01*
X67876190Y-47928572D01*
X67800000Y-47852381D01*
X67761905Y-47738095D01*
X67761905Y-47661905D01*
X67800000Y-47547619D01*
X67838095Y-47509524D01*
X67800000Y-57209523D02*
X67761905Y-57285714D01*
X67761905Y-57399999D01*
X67800000Y-57514285D01*
X67876190Y-57590476D01*
X67952381Y-57628571D01*
X68104762Y-57666666D01*
X68219048Y-57666666D01*
X68371429Y-57628571D01*
X68447619Y-57590476D01*
X68523810Y-57514285D01*
X68561905Y-57399999D01*
X68561905Y-57323809D01*
X68523810Y-57209523D01*
X68485714Y-57171428D01*
X68219048Y-57171428D01*
X68219048Y-57323809D01*
X68561905Y-56828571D02*
X67761905Y-56828571D01*
X68561905Y-56371428D01*
X67761905Y-56371428D01*
X68561905Y-55990476D02*
X67761905Y-55990476D01*
X67761905Y-55800000D01*
X67800000Y-55685714D01*
X67876190Y-55609523D01*
X67952381Y-55571428D01*
X68104762Y-55533333D01*
X68219048Y-55533333D01*
X68371429Y-55571428D01*
X68447619Y-55609523D01*
X68523810Y-55685714D01*
X68561905Y-55800000D01*
X68561905Y-55990476D01*
X68523810Y-52352381D02*
X68561905Y-52238095D01*
X68561905Y-52047619D01*
X68523810Y-51971429D01*
X68485714Y-51933333D01*
X68409524Y-51895238D01*
X68333333Y-51895238D01*
X68257143Y-51933333D01*
X68219048Y-51971429D01*
X68180952Y-52047619D01*
X68142857Y-52200000D01*
X68104762Y-52276191D01*
X68066667Y-52314286D01*
X67990476Y-52352381D01*
X67914286Y-52352381D01*
X67838095Y-52314286D01*
X67800000Y-52276191D01*
X67761905Y-52200000D01*
X67761905Y-52009524D01*
X67800000Y-51895238D01*
X68485714Y-51095238D02*
X68523810Y-51133333D01*
X68561905Y-51247619D01*
X68561905Y-51323809D01*
X68523810Y-51438095D01*
X68447619Y-51514286D01*
X68371429Y-51552381D01*
X68219048Y-51590476D01*
X68104762Y-51590476D01*
X67952381Y-51552381D01*
X67876190Y-51514286D01*
X67800000Y-51438095D01*
X67761905Y-51323809D01*
X67761905Y-51247619D01*
X67800000Y-51133333D01*
X67838095Y-51095238D01*
X68561905Y-50371428D02*
X68561905Y-50752381D01*
X67761905Y-50752381D01*
X68523810Y-54971428D02*
X68561905Y-54857142D01*
X68561905Y-54666666D01*
X68523810Y-54590476D01*
X68485714Y-54552380D01*
X68409524Y-54514285D01*
X68333333Y-54514285D01*
X68257143Y-54552380D01*
X68219048Y-54590476D01*
X68180952Y-54666666D01*
X68142857Y-54819047D01*
X68104762Y-54895238D01*
X68066667Y-54933333D01*
X67990476Y-54971428D01*
X67914286Y-54971428D01*
X67838095Y-54933333D01*
X67800000Y-54895238D01*
X67761905Y-54819047D01*
X67761905Y-54628571D01*
X67800000Y-54514285D01*
X68561905Y-54171428D02*
X67761905Y-54171428D01*
X67761905Y-53980952D01*
X67800000Y-53866666D01*
X67876190Y-53790475D01*
X67952381Y-53752380D01*
X68104762Y-53714285D01*
X68219048Y-53714285D01*
X68371429Y-53752380D01*
X68447619Y-53790475D01*
X68523810Y-53866666D01*
X68561905Y-53980952D01*
X68561905Y-54171428D01*
X68333333Y-53409523D02*
X68333333Y-53028571D01*
X68561905Y-53485714D02*
X67761905Y-53219047D01*
X68561905Y-52952380D01*
X68423810Y-44871428D02*
X68461905Y-44757142D01*
X68461905Y-44566666D01*
X68423810Y-44490476D01*
X68385714Y-44452380D01*
X68309524Y-44414285D01*
X68233333Y-44414285D01*
X68157143Y-44452380D01*
X68119048Y-44490476D01*
X68080952Y-44566666D01*
X68042857Y-44719047D01*
X68004762Y-44795238D01*
X67966667Y-44833333D01*
X67890476Y-44871428D01*
X67814286Y-44871428D01*
X67738095Y-44833333D01*
X67700000Y-44795238D01*
X67661905Y-44719047D01*
X67661905Y-44528571D01*
X67700000Y-44414285D01*
X68461905Y-44071428D02*
X67661905Y-44071428D01*
X67661905Y-43880952D01*
X67700000Y-43766666D01*
X67776190Y-43690475D01*
X67852381Y-43652380D01*
X68004762Y-43614285D01*
X68119048Y-43614285D01*
X68271429Y-43652380D01*
X68347619Y-43690475D01*
X68423810Y-43766666D01*
X68461905Y-43880952D01*
X68461905Y-44071428D01*
X68233333Y-43309523D02*
X68233333Y-42928571D01*
X68461905Y-43385714D02*
X67661905Y-43119047D01*
X68461905Y-42852380D01*
X68423810Y-41952381D02*
X68461905Y-41838095D01*
X68461905Y-41647619D01*
X68423810Y-41571429D01*
X68385714Y-41533333D01*
X68309524Y-41495238D01*
X68233333Y-41495238D01*
X68157143Y-41533333D01*
X68119048Y-41571429D01*
X68080952Y-41647619D01*
X68042857Y-41800000D01*
X68004762Y-41876191D01*
X67966667Y-41914286D01*
X67890476Y-41952381D01*
X67814286Y-41952381D01*
X67738095Y-41914286D01*
X67700000Y-41876191D01*
X67661905Y-41800000D01*
X67661905Y-41609524D01*
X67700000Y-41495238D01*
X68385714Y-40695238D02*
X68423810Y-40733333D01*
X68461905Y-40847619D01*
X68461905Y-40923809D01*
X68423810Y-41038095D01*
X68347619Y-41114286D01*
X68271429Y-41152381D01*
X68119048Y-41190476D01*
X68004762Y-41190476D01*
X67852381Y-41152381D01*
X67776190Y-41114286D01*
X67700000Y-41038095D01*
X67661905Y-40923809D01*
X67661905Y-40847619D01*
X67700000Y-40733333D01*
X67738095Y-40695238D01*
X68461905Y-39971428D02*
X68461905Y-40352381D01*
X67661905Y-40352381D01*
X67700000Y-38909523D02*
X67661905Y-38985714D01*
X67661905Y-39099999D01*
X67700000Y-39214285D01*
X67776190Y-39290476D01*
X67852381Y-39328571D01*
X68004762Y-39366666D01*
X68119048Y-39366666D01*
X68271429Y-39328571D01*
X68347619Y-39290476D01*
X68423810Y-39214285D01*
X68461905Y-39099999D01*
X68461905Y-39023809D01*
X68423810Y-38909523D01*
X68385714Y-38871428D01*
X68119048Y-38871428D01*
X68119048Y-39023809D01*
X68461905Y-38528571D02*
X67661905Y-38528571D01*
X68461905Y-38071428D01*
X67661905Y-38071428D01*
X68461905Y-37690476D02*
X67661905Y-37690476D01*
X67661905Y-37500000D01*
X67700000Y-37385714D01*
X67776190Y-37309523D01*
X67852381Y-37271428D01*
X68004762Y-37233333D01*
X68119048Y-37233333D01*
X68271429Y-37271428D01*
X68347619Y-37309523D01*
X68423810Y-37385714D01*
X68461905Y-37500000D01*
X68461905Y-37690476D01*
X67661905Y-36566667D02*
X68461905Y-36300000D01*
X67661905Y-36033333D01*
X68385714Y-35309524D02*
X68423810Y-35347619D01*
X68461905Y-35461905D01*
X68461905Y-35538095D01*
X68423810Y-35652381D01*
X68347619Y-35728572D01*
X68271429Y-35766667D01*
X68119048Y-35804762D01*
X68004762Y-35804762D01*
X67852381Y-35766667D01*
X67776190Y-35728572D01*
X67700000Y-35652381D01*
X67661905Y-35538095D01*
X67661905Y-35461905D01*
X67700000Y-35347619D01*
X67738095Y-35309524D01*
X68385714Y-34509524D02*
X68423810Y-34547619D01*
X68461905Y-34661905D01*
X68461905Y-34738095D01*
X68423810Y-34852381D01*
X68347619Y-34928572D01*
X68271429Y-34966667D01*
X68119048Y-35004762D01*
X68004762Y-35004762D01*
X67852381Y-34966667D01*
X67776190Y-34928572D01*
X67700000Y-34852381D01*
X67661905Y-34738095D01*
X67661905Y-34661905D01*
X67700000Y-34547619D01*
X67738095Y-34509524D01*
D11*
X62350900Y-34182540D02*
X53650900Y-34182540D01*
X62350900Y-40587540D02*
X53650900Y-40587540D01*
X53650900Y-40587540D02*
X53650900Y-34182540D01*
X53650900Y-35412540D02*
X62350900Y-35412540D01*
X62350900Y-34182540D02*
X62350900Y-40587540D01*
X48956000Y-72440000D02*
X66990000Y-72440000D01*
X66990000Y-39674000D02*
X48956000Y-39674000D01*
X48956000Y-72440000D02*
X48956000Y-39674000D01*
X66990000Y-39674000D02*
X66990000Y-72440000D01*
X60600000Y-64350000D02*
X61600000Y-64350000D01*
X61600000Y-62650000D02*
X60600000Y-62650000D01*
X54750000Y-47700000D02*
X54750000Y-46700000D01*
X53050000Y-46700000D02*
X53050000Y-47700000D01*
X52625000Y-54000000D02*
X52625000Y-52800000D01*
X54375000Y-52800000D02*
X54375000Y-54000000D01*
X55900000Y-43875000D02*
X54700000Y-43875000D01*
X54700000Y-42125000D02*
X55900000Y-42125000D01*
X55200180Y-53150800D02*
X55200180Y-52449760D01*
X55200180Y-52449760D02*
X55449100Y-52449760D01*
X57999160Y-52449760D02*
X58199820Y-52449760D01*
X58199820Y-52449760D02*
X58199820Y-53150800D01*
X57425000Y-44625000D02*
X57425000Y-44770000D01*
X61575000Y-44625000D02*
X61575000Y-44770000D01*
X61575000Y-49775000D02*
X61575000Y-49630000D01*
X57425000Y-49775000D02*
X57425000Y-49630000D01*
X57425000Y-44625000D02*
X61575000Y-44625000D01*
X57425000Y-49775000D02*
X61575000Y-49775000D01*
X57425000Y-44770000D02*
X56025000Y-44770000D01*
X59250000Y-53000000D02*
X59250000Y-54000000D01*
X60950000Y-54000000D02*
X60950000Y-53000000D01*
X57150000Y-59000000D02*
X57150000Y-60000000D01*
X58850000Y-60000000D02*
X58850000Y-59000000D01*
X59525000Y-60000000D02*
X59525000Y-58800000D01*
X61275000Y-58800000D02*
X61275000Y-60000000D01*
X56475000Y-58800000D02*
X56475000Y-60000000D01*
X54725000Y-60000000D02*
X54725000Y-58800000D01*
X69330000Y-37270000D02*
X69330000Y-44890000D01*
X71870000Y-37270000D02*
X71870000Y-44890000D01*
X72150000Y-34450000D02*
X72150000Y-36000000D01*
X69330000Y-44890000D02*
X71870000Y-44890000D01*
X71870000Y-37270000D02*
X69330000Y-37270000D01*
X69050000Y-36000000D02*
X69050000Y-34450000D01*
X69050000Y-34450000D02*
X72150000Y-34450000D01*
X69330000Y-50170000D02*
X69330000Y-57790000D01*
X71870000Y-50170000D02*
X71870000Y-57790000D01*
X72150000Y-47350000D02*
X72150000Y-48900000D01*
X69330000Y-57790000D02*
X71870000Y-57790000D01*
X71870000Y-50170000D02*
X69330000Y-50170000D01*
X69050000Y-48900000D02*
X69050000Y-47350000D01*
X69050000Y-47350000D02*
X72150000Y-47350000D01*
X69330000Y-63070000D02*
X69330000Y-70690000D01*
X71870000Y-63070000D02*
X71870000Y-70690000D01*
X72150000Y-60250000D02*
X72150000Y-61800000D01*
X69330000Y-70690000D02*
X71870000Y-70690000D01*
X71870000Y-63070000D02*
X69330000Y-63070000D01*
X69050000Y-61800000D02*
X69050000Y-60250000D01*
X69050000Y-60250000D02*
X72150000Y-60250000D01*
X72286000Y-74500000D02*
G75*
G03X72286000Y-74500000I-2286000J0D01*
G01*
D13*
X52719048Y-71861905D02*
X52719048Y-71061905D01*
X53557143Y-71785714D02*
X53519048Y-71823810D01*
X53404762Y-71861905D01*
X53328572Y-71861905D01*
X53214286Y-71823810D01*
X53138095Y-71747619D01*
X53100000Y-71671429D01*
X53061905Y-71519048D01*
X53061905Y-71404762D01*
X53100000Y-71252381D01*
X53138095Y-71176190D01*
X53214286Y-71100000D01*
X53328572Y-71061905D01*
X53404762Y-71061905D01*
X53519048Y-71100000D01*
X53557143Y-71138095D01*
X54319048Y-71861905D02*
X53861905Y-71861905D01*
X54090476Y-71861905D02*
X54090476Y-71061905D01*
X54014286Y-71176190D01*
X53938095Y-71252381D01*
X53861905Y-71290476D01*
D11*
X58257143Y-63766666D02*
X58304762Y-63814285D01*
X58352381Y-63957142D01*
X58352381Y-64052380D01*
X58304762Y-64195238D01*
X58209524Y-64290476D01*
X58114286Y-64338095D01*
X57923810Y-64385714D01*
X57780952Y-64385714D01*
X57590476Y-64338095D01*
X57495238Y-64290476D01*
X57400000Y-64195238D01*
X57352381Y-64052380D01*
X57352381Y-63957142D01*
X57400000Y-63814285D01*
X57447619Y-63766666D01*
X57447619Y-63385714D02*
X57400000Y-63338095D01*
X57352381Y-63242857D01*
X57352381Y-63004761D01*
X57400000Y-62909523D01*
X57447619Y-62861904D01*
X57542857Y-62814285D01*
X57638095Y-62814285D01*
X57780952Y-62861904D01*
X58352381Y-63433333D01*
X58352381Y-62814285D01*
X55180952Y-69861905D02*
X55180952Y-69061905D01*
X55638095Y-69861905D01*
X55638095Y-69061905D01*
X56476190Y-69861905D02*
X56209523Y-69480952D01*
X56019047Y-69861905D02*
X56019047Y-69061905D01*
X56323809Y-69061905D01*
X56400000Y-69100000D01*
X56438095Y-69138095D01*
X56476190Y-69214286D01*
X56476190Y-69328571D01*
X56438095Y-69404762D01*
X56400000Y-69442857D01*
X56323809Y-69480952D01*
X56019047Y-69480952D01*
X57085714Y-69442857D02*
X56819047Y-69442857D01*
X56819047Y-69861905D02*
X56819047Y-69061905D01*
X57200000Y-69061905D01*
X57466666Y-69138095D02*
X57504761Y-69100000D01*
X57580952Y-69061905D01*
X57771428Y-69061905D01*
X57847618Y-69100000D01*
X57885714Y-69138095D01*
X57923809Y-69214286D01*
X57923809Y-69290476D01*
X57885714Y-69404762D01*
X57428571Y-69861905D01*
X57923809Y-69861905D01*
X58609523Y-69328571D02*
X58609523Y-69861905D01*
X58419047Y-69023810D02*
X58228571Y-69595238D01*
X58723809Y-69595238D01*
X59409524Y-69861905D02*
X59028571Y-69861905D01*
X59028571Y-69061905D01*
X59828571Y-69061905D02*
X59904762Y-69061905D01*
X59980952Y-69100000D01*
X60019047Y-69138095D01*
X60057143Y-69214286D01*
X60095238Y-69366667D01*
X60095238Y-69557143D01*
X60057143Y-69709524D01*
X60019047Y-69785714D01*
X59980952Y-69823810D01*
X59904762Y-69861905D01*
X59828571Y-69861905D01*
X59752381Y-69823810D01*
X59714285Y-69785714D01*
X59676190Y-69709524D01*
X59638095Y-69557143D01*
X59638095Y-69366667D01*
X59676190Y-69214286D01*
X59714285Y-69138095D01*
X59752381Y-69100000D01*
X59828571Y-69061905D01*
X60857143Y-69861905D02*
X60400000Y-69861905D01*
X60628571Y-69861905D02*
X60628571Y-69061905D01*
X60552381Y-69176190D01*
X60476190Y-69252381D01*
X60400000Y-69290476D01*
X53633334Y-50657143D02*
X53585715Y-50704762D01*
X53442858Y-50752381D01*
X53347620Y-50752381D01*
X53204762Y-50704762D01*
X53109524Y-50609524D01*
X53061905Y-50514286D01*
X53014286Y-50323810D01*
X53014286Y-50180952D01*
X53061905Y-49990476D01*
X53109524Y-49895238D01*
X53204762Y-49800000D01*
X53347620Y-49752381D01*
X53442858Y-49752381D01*
X53585715Y-49800000D01*
X53633334Y-49847619D01*
X53966667Y-49752381D02*
X54585715Y-49752381D01*
X54252381Y-50133333D01*
X54395239Y-50133333D01*
X54490477Y-50180952D01*
X54538096Y-50228571D01*
X54585715Y-50323810D01*
X54585715Y-50561905D01*
X54538096Y-50657143D01*
X54490477Y-50704762D01*
X54395239Y-50752381D01*
X54109524Y-50752381D01*
X54014286Y-50704762D01*
X53966667Y-50657143D01*
X55652381Y-51566666D02*
X55176190Y-51900000D01*
X55652381Y-52138095D02*
X54652381Y-52138095D01*
X54652381Y-51757142D01*
X54700000Y-51661904D01*
X54747619Y-51614285D01*
X54842857Y-51566666D01*
X54985714Y-51566666D01*
X55080952Y-51614285D01*
X55128571Y-51661904D01*
X55176190Y-51757142D01*
X55176190Y-52138095D01*
X55652381Y-50614285D02*
X55652381Y-51185714D01*
X55652381Y-50900000D02*
X54652381Y-50900000D01*
X54795238Y-50995238D01*
X54890476Y-51090476D01*
X54938095Y-51185714D01*
X59052381Y-43266666D02*
X58576190Y-43600000D01*
X59052381Y-43838095D02*
X58052381Y-43838095D01*
X58052381Y-43457142D01*
X58100000Y-43361904D01*
X58147619Y-43314285D01*
X58242857Y-43266666D01*
X58385714Y-43266666D01*
X58480952Y-43314285D01*
X58528571Y-43361904D01*
X58576190Y-43457142D01*
X58576190Y-43838095D01*
X58147619Y-42885714D02*
X58100000Y-42838095D01*
X58052381Y-42742857D01*
X58052381Y-42504761D01*
X58100000Y-42409523D01*
X58147619Y-42361904D01*
X58242857Y-42314285D01*
X58338095Y-42314285D01*
X58480952Y-42361904D01*
X59052381Y-42933333D01*
X59052381Y-42314285D01*
X57552381Y-52161905D02*
X58361905Y-52161905D01*
X58457143Y-52114286D01*
X58504762Y-52066667D01*
X58552381Y-51971429D01*
X58552381Y-51780952D01*
X58504762Y-51685714D01*
X58457143Y-51638095D01*
X58361905Y-51590476D01*
X57552381Y-51590476D01*
X57552381Y-51209524D02*
X57552381Y-50590476D01*
X57933333Y-50923810D01*
X57933333Y-50780952D01*
X57980952Y-50685714D01*
X58028571Y-50638095D01*
X58123810Y-50590476D01*
X58361905Y-50590476D01*
X58457143Y-50638095D01*
X58504762Y-50685714D01*
X58552381Y-50780952D01*
X58552381Y-51066667D01*
X58504762Y-51161905D01*
X58457143Y-51209524D01*
X60538095Y-42952381D02*
X60538095Y-43761905D01*
X60585714Y-43857143D01*
X60633333Y-43904762D01*
X60728571Y-43952381D01*
X60919048Y-43952381D01*
X61014286Y-43904762D01*
X61061905Y-43857143D01*
X61109524Y-43761905D01*
X61109524Y-42952381D01*
X62014286Y-43285714D02*
X62014286Y-43952381D01*
X61776190Y-42904762D02*
X61538095Y-43619048D01*
X62157143Y-43619048D01*
X60033334Y-50957143D02*
X59985715Y-51004762D01*
X59842858Y-51052381D01*
X59747620Y-51052381D01*
X59604762Y-51004762D01*
X59509524Y-50909524D01*
X59461905Y-50814286D01*
X59414286Y-50623810D01*
X59414286Y-50480952D01*
X59461905Y-50290476D01*
X59509524Y-50195238D01*
X59604762Y-50100000D01*
X59747620Y-50052381D01*
X59842858Y-50052381D01*
X59985715Y-50100000D01*
X60033334Y-50147619D01*
X60890477Y-50385714D02*
X60890477Y-51052381D01*
X60652381Y-50004762D02*
X60414286Y-50719048D01*
X61033334Y-50719048D01*
X57833334Y-56957143D02*
X57785715Y-57004762D01*
X57642858Y-57052381D01*
X57547620Y-57052381D01*
X57404762Y-57004762D01*
X57309524Y-56909524D01*
X57261905Y-56814286D01*
X57214286Y-56623810D01*
X57214286Y-56480952D01*
X57261905Y-56290476D01*
X57309524Y-56195238D01*
X57404762Y-56100000D01*
X57547620Y-56052381D01*
X57642858Y-56052381D01*
X57785715Y-56100000D01*
X57833334Y-56147619D01*
X58738096Y-56052381D02*
X58261905Y-56052381D01*
X58214286Y-56528571D01*
X58261905Y-56480952D01*
X58357143Y-56433333D01*
X58595239Y-56433333D01*
X58690477Y-56480952D01*
X58738096Y-56528571D01*
X58785715Y-56623810D01*
X58785715Y-56861905D01*
X58738096Y-56957143D01*
X58690477Y-57004762D01*
X58595239Y-57052381D01*
X58357143Y-57052381D01*
X58261905Y-57004762D01*
X58214286Y-56957143D01*
X62652381Y-59666666D02*
X62176190Y-60000000D01*
X62652381Y-60238095D02*
X61652381Y-60238095D01*
X61652381Y-59857142D01*
X61700000Y-59761904D01*
X61747619Y-59714285D01*
X61842857Y-59666666D01*
X61985714Y-59666666D01*
X62080952Y-59714285D01*
X62128571Y-59761904D01*
X62176190Y-59857142D01*
X62176190Y-60238095D01*
X61652381Y-59333333D02*
X61652381Y-58714285D01*
X62033333Y-59047619D01*
X62033333Y-58904761D01*
X62080952Y-58809523D01*
X62128571Y-58761904D01*
X62223810Y-58714285D01*
X62461905Y-58714285D01*
X62557143Y-58761904D01*
X62604762Y-58809523D01*
X62652381Y-58904761D01*
X62652381Y-59190476D01*
X62604762Y-59285714D01*
X62557143Y-59333333D01*
X54452381Y-59566666D02*
X53976190Y-59900000D01*
X54452381Y-60138095D02*
X53452381Y-60138095D01*
X53452381Y-59757142D01*
X53500000Y-59661904D01*
X53547619Y-59614285D01*
X53642857Y-59566666D01*
X53785714Y-59566666D01*
X53880952Y-59614285D01*
X53928571Y-59661904D01*
X53976190Y-59757142D01*
X53976190Y-60138095D01*
X53785714Y-58709523D02*
X54452381Y-58709523D01*
X53404762Y-58947619D02*
X54119048Y-59185714D01*
X54119048Y-58566666D01*
M02*
