G04 #@! TF.FileFunction,Copper,L2,Bot,Signal*
%FSLAX46Y46*%
G04 Gerber Fmt 4.6, Leading zero omitted, Abs format (unit mm)*
G04 Created by KiCad (PCBNEW 4.0.2-stable) date Lundi 27 juin 2016 03:17:05*
%MOMM*%
G01*
G04 APERTURE LIST*
%ADD10C,0.100000*%
%ADD11R,2.540000X2.540000*%
%ADD12C,2.540000*%
%ADD13O,1.250000X0.950000*%
%ADD14O,1.000000X1.550000*%
%ADD15O,2.199640X1.501140*%
%ADD16R,2.032000X1.727200*%
%ADD17O,2.032000X1.727200*%
%ADD18C,4.064000*%
%ADD19C,0.600000*%
%ADD20C,0.250000*%
%ADD21C,0.254000*%
G04 APERTURE END LIST*
D10*
D11*
X58000000Y-36800000D03*
D12*
X58000000Y-74620000D03*
D13*
X60500900Y-39562540D03*
X55500900Y-39562540D03*
D14*
X61500900Y-36862540D03*
X54500900Y-36862540D03*
D15*
X50480000Y-43230000D03*
X50480000Y-45770000D03*
X50480000Y-48310000D03*
X50480000Y-50850000D03*
X50480000Y-53390000D03*
X50480000Y-55930000D03*
X50480000Y-58470000D03*
X50480000Y-61010000D03*
X50480000Y-63550000D03*
X50480000Y-66090000D03*
X50480000Y-68630000D03*
X50480000Y-71170000D03*
X65720000Y-71170000D03*
X65720000Y-68630000D03*
X65720000Y-66090000D03*
X65720000Y-63550000D03*
X65720000Y-61010000D03*
X65720000Y-58470000D03*
X65720000Y-55930000D03*
X65720000Y-53390000D03*
X65720000Y-50850000D03*
X65720000Y-48310000D03*
X65720000Y-45770000D03*
X65720000Y-43230000D03*
X63180000Y-54660000D03*
X63180000Y-52120000D03*
D16*
X70600000Y-36000000D03*
D17*
X70600000Y-38540000D03*
X70600000Y-41080000D03*
X70600000Y-43620000D03*
D16*
X70600000Y-48900000D03*
D17*
X70600000Y-51440000D03*
X70600000Y-53980000D03*
X70600000Y-56520000D03*
D16*
X70600000Y-61800000D03*
D17*
X70600000Y-64340000D03*
X70600000Y-66880000D03*
X70600000Y-69420000D03*
D18*
X70000000Y-74500000D03*
D19*
X60236400Y-67991000D03*
X54745000Y-64268200D03*
X55611800Y-53198100D03*
D20*
X70600000Y-36000000D02*
X69258700Y-36000000D01*
X58000000Y-36800000D02*
X59595300Y-36800000D01*
X60651700Y-35743600D02*
X59595300Y-36800000D01*
X69002300Y-35743600D02*
X60651700Y-35743600D01*
X69258700Y-36000000D02*
X69002300Y-35743600D01*
X70600000Y-48900000D02*
X70600000Y-47711100D01*
X69258700Y-46369800D02*
X69258700Y-36000000D01*
X70600000Y-47711100D02*
X69258700Y-46369800D01*
X67906300Y-50088900D02*
X70600000Y-50088900D01*
X67145200Y-50850000D02*
X67906300Y-50088900D01*
X70600000Y-48900000D02*
X70600000Y-50088900D01*
X65720000Y-50850000D02*
X67145200Y-50850000D01*
X60640000Y-50850000D02*
X50480000Y-50850000D01*
X64644100Y-46845900D02*
X60640000Y-50850000D01*
X65720000Y-46845900D02*
X64644100Y-46845900D01*
X65720000Y-45770000D02*
X65720000Y-46845900D01*
X69258600Y-59050300D02*
X70600000Y-57708900D01*
X69258600Y-62850000D02*
X69258600Y-59050300D01*
X69559700Y-63151100D02*
X69258600Y-62850000D01*
X70600000Y-63151100D02*
X69559700Y-63151100D01*
X70600000Y-64340000D02*
X70600000Y-63151100D01*
X70600000Y-56520000D02*
X70600000Y-57708900D01*
X58133300Y-70094100D02*
X50480000Y-70094100D01*
X60236400Y-67991000D02*
X58133300Y-70094100D01*
X50480000Y-71170000D02*
X50480000Y-70094100D01*
X65720000Y-66090000D02*
X65720000Y-65014100D01*
X55490900Y-65014100D02*
X65720000Y-65014100D01*
X54745000Y-64268200D02*
X55490900Y-65014100D01*
X64102900Y-53198100D02*
X64294800Y-53390000D01*
X55611800Y-53198100D02*
X64102900Y-53198100D01*
X65720000Y-53390000D02*
X64294800Y-53390000D01*
X70600000Y-53980000D02*
X69258700Y-53980000D01*
X70600000Y-69420000D02*
X70600000Y-68231100D01*
X68578700Y-66729900D02*
X68578700Y-54660000D01*
X70079900Y-68231100D02*
X68578700Y-66729900D01*
X70600000Y-68231100D02*
X70079900Y-68231100D01*
X69258700Y-53980000D02*
X68578700Y-54660000D01*
X68578700Y-54660000D02*
X63180000Y-54660000D01*
X71120100Y-52628900D02*
X70600000Y-52628900D01*
X71951000Y-53459800D02*
X71120100Y-52628900D01*
X71951000Y-64860200D02*
X71951000Y-53459800D01*
X71120100Y-65691100D02*
X71951000Y-64860200D01*
X70600000Y-65691100D02*
X71120100Y-65691100D01*
X70600000Y-66880000D02*
X70600000Y-65691100D01*
X70600000Y-51440000D02*
X70600000Y-52034400D01*
X70600000Y-52034400D02*
X70600000Y-52628900D01*
X64690800Y-52034400D02*
X64605200Y-52120000D01*
X70600000Y-52034400D02*
X64690800Y-52034400D01*
X63180000Y-52120000D02*
X64605200Y-52120000D01*
D21*
G36*
X52711079Y-34240407D02*
X52890026Y-34359975D01*
X53009593Y-34538919D01*
X53065000Y-34817468D01*
X53065000Y-35000000D01*
X53117143Y-35262138D01*
X53265632Y-35484368D01*
X53487862Y-35632857D01*
X53750000Y-35685000D01*
X53806613Y-35685000D01*
X53698334Y-35757350D01*
X53452297Y-36125570D01*
X53365900Y-36559916D01*
X53365900Y-37165164D01*
X53452297Y-37599510D01*
X53698334Y-37967730D01*
X54066554Y-38213767D01*
X54500900Y-38300164D01*
X54935246Y-38213767D01*
X55303466Y-37967730D01*
X55549503Y-37599510D01*
X55635900Y-37165164D01*
X55635900Y-36559916D01*
X55549503Y-36125570D01*
X55303466Y-35757350D01*
X55195187Y-35685000D01*
X56082560Y-35685000D01*
X56082560Y-38070000D01*
X56126838Y-38305317D01*
X56265910Y-38521441D01*
X56478110Y-38666431D01*
X56730000Y-38717440D01*
X59270000Y-38717440D01*
X59505317Y-38673162D01*
X59721441Y-38534090D01*
X59866431Y-38321890D01*
X59917440Y-38070000D01*
X59917440Y-37481233D01*
X60132701Y-37337401D01*
X60365900Y-37104202D01*
X60365900Y-37165164D01*
X60452297Y-37599510D01*
X60698334Y-37967730D01*
X61066554Y-38213767D01*
X61500900Y-38300164D01*
X61935246Y-38213767D01*
X62303466Y-37967730D01*
X62549503Y-37599510D01*
X62635900Y-37165164D01*
X62635900Y-36559916D01*
X62624698Y-36503600D01*
X68498700Y-36503600D01*
X68498700Y-46369800D01*
X68556552Y-46660639D01*
X68721299Y-46907201D01*
X69287017Y-47472919D01*
X69132559Y-47572310D01*
X68987569Y-47784510D01*
X68936560Y-48036400D01*
X68936560Y-49328900D01*
X67906300Y-49328900D01*
X67615461Y-49386752D01*
X67368899Y-49551499D01*
X67063297Y-49857101D01*
X66648588Y-49580000D01*
X67082983Y-49289746D01*
X67383337Y-48840235D01*
X67488807Y-48310000D01*
X67383337Y-47779765D01*
X67082983Y-47330254D01*
X66633472Y-47029900D01*
X66625928Y-47028399D01*
X66716817Y-47001499D01*
X67138798Y-46659944D01*
X67397950Y-46182903D01*
X67412133Y-46111275D01*
X67289479Y-45897000D01*
X65847000Y-45897000D01*
X65847000Y-45917000D01*
X65593000Y-45917000D01*
X65593000Y-45897000D01*
X64150521Y-45897000D01*
X64027867Y-46111275D01*
X64042050Y-46182903D01*
X64301202Y-46659944D01*
X64723183Y-47001499D01*
X64814072Y-47028399D01*
X64806528Y-47029900D01*
X64357017Y-47330254D01*
X64056663Y-47779765D01*
X63951193Y-48310000D01*
X64056663Y-48840235D01*
X64357017Y-49289746D01*
X64791412Y-49580000D01*
X64357017Y-49870254D01*
X64056663Y-50319765D01*
X63958541Y-50813061D01*
X63563237Y-50734430D01*
X62796763Y-50734430D01*
X62266528Y-50839900D01*
X61817017Y-51140254D01*
X61516663Y-51589765D01*
X61411193Y-52120000D01*
X61474467Y-52438100D01*
X56174263Y-52438100D01*
X56142127Y-52405908D01*
X55798599Y-52263262D01*
X55426633Y-52262938D01*
X55082857Y-52404983D01*
X54819608Y-52667773D01*
X54676962Y-53011301D01*
X54676638Y-53383267D01*
X54818683Y-53727043D01*
X55081473Y-53990292D01*
X55425001Y-54132938D01*
X55796967Y-54133262D01*
X56140743Y-53991217D01*
X56173918Y-53958100D01*
X61631366Y-53958100D01*
X61516663Y-54129765D01*
X61411193Y-54660000D01*
X61516663Y-55190235D01*
X61817017Y-55639746D01*
X62266528Y-55940100D01*
X62796763Y-56045570D01*
X63563237Y-56045570D01*
X63958541Y-55966939D01*
X64056663Y-56460235D01*
X64357017Y-56909746D01*
X64791412Y-57200000D01*
X64357017Y-57490254D01*
X64056663Y-57939765D01*
X63951193Y-58470000D01*
X64056663Y-59000235D01*
X64357017Y-59449746D01*
X64791412Y-59740000D01*
X64357017Y-60030254D01*
X64056663Y-60479765D01*
X63951193Y-61010000D01*
X64056663Y-61540235D01*
X64357017Y-61989746D01*
X64791412Y-62280000D01*
X64357017Y-62570254D01*
X64056663Y-63019765D01*
X63951193Y-63550000D01*
X64056663Y-64080235D01*
X64172836Y-64254100D01*
X55805702Y-64254100D01*
X55680122Y-64128520D01*
X55680162Y-64083033D01*
X55538117Y-63739257D01*
X55275327Y-63476008D01*
X54931799Y-63333362D01*
X54559833Y-63333038D01*
X54216057Y-63475083D01*
X53952808Y-63737873D01*
X53810162Y-64081401D01*
X53809838Y-64453367D01*
X53951883Y-64797143D01*
X54214673Y-65060392D01*
X54558201Y-65203038D01*
X54605077Y-65203079D01*
X54953499Y-65551501D01*
X55200061Y-65716248D01*
X55490900Y-65774100D01*
X64014029Y-65774100D01*
X63951193Y-66090000D01*
X64056663Y-66620235D01*
X64357017Y-67069746D01*
X64791412Y-67360000D01*
X64357017Y-67650254D01*
X64056663Y-68099765D01*
X63951193Y-68630000D01*
X64056663Y-69160235D01*
X64357017Y-69609746D01*
X64791412Y-69900000D01*
X64357017Y-70190254D01*
X64056663Y-70639765D01*
X63951193Y-71170000D01*
X64056663Y-71700235D01*
X64357017Y-72149746D01*
X64806528Y-72450100D01*
X65336763Y-72555570D01*
X66103237Y-72555570D01*
X66633472Y-72450100D01*
X67082983Y-72149746D01*
X67383337Y-71700235D01*
X67488807Y-71170000D01*
X67383337Y-70639765D01*
X67082983Y-70190254D01*
X66648588Y-69900000D01*
X67082983Y-69609746D01*
X67383337Y-69160235D01*
X67488807Y-68630000D01*
X67383337Y-68099765D01*
X67082983Y-67650254D01*
X66648588Y-67360000D01*
X67082983Y-67069746D01*
X67383337Y-66620235D01*
X67488807Y-66090000D01*
X67383337Y-65559765D01*
X67082983Y-65110254D01*
X66648588Y-64820000D01*
X67082983Y-64529746D01*
X67383337Y-64080235D01*
X67488807Y-63550000D01*
X67383337Y-63019765D01*
X67082983Y-62570254D01*
X66648588Y-62280000D01*
X67082983Y-61989746D01*
X67383337Y-61540235D01*
X67488807Y-61010000D01*
X67383337Y-60479765D01*
X67082983Y-60030254D01*
X66648588Y-59740000D01*
X67082983Y-59449746D01*
X67383337Y-59000235D01*
X67488807Y-58470000D01*
X67383337Y-57939765D01*
X67082983Y-57490254D01*
X66648588Y-57200000D01*
X67082983Y-56909746D01*
X67383337Y-56460235D01*
X67488807Y-55930000D01*
X67387362Y-55420000D01*
X67818700Y-55420000D01*
X67818700Y-66729900D01*
X67876552Y-67020739D01*
X68041299Y-67267301D01*
X69266962Y-68492964D01*
X69030729Y-68846511D01*
X68916655Y-69420000D01*
X69030729Y-69993489D01*
X69355585Y-70479670D01*
X69841766Y-70804526D01*
X70415255Y-70918600D01*
X70784745Y-70918600D01*
X71358234Y-70804526D01*
X71844415Y-70479670D01*
X72169271Y-69993489D01*
X72283345Y-69420000D01*
X72169271Y-68846511D01*
X71844415Y-68360330D01*
X71529634Y-68150000D01*
X71844415Y-67939670D01*
X72169271Y-67453489D01*
X72283345Y-66880000D01*
X72169271Y-66306511D01*
X71933038Y-65952964D01*
X72315000Y-65571002D01*
X72315000Y-73118805D01*
X72262291Y-72991239D01*
X71512707Y-72240345D01*
X70532827Y-71833464D01*
X69471828Y-71832538D01*
X68491239Y-72237709D01*
X67740345Y-72987293D01*
X67333464Y-73967173D01*
X67332538Y-75028172D01*
X67737709Y-76008761D01*
X68487293Y-76759655D01*
X68620579Y-76815000D01*
X64627000Y-76815000D01*
X64627000Y-75250000D01*
X64618315Y-75203841D01*
X64591035Y-75161447D01*
X64549410Y-75133006D01*
X64500000Y-75123000D01*
X59847451Y-75123000D01*
X59914261Y-74948964D01*
X59894436Y-74191368D01*
X59642657Y-73583520D01*
X59347777Y-73451828D01*
X58179605Y-74620000D01*
X58193748Y-74634143D01*
X58014143Y-74813748D01*
X58000000Y-74799605D01*
X57985858Y-74813748D01*
X57806253Y-74634143D01*
X57820395Y-74620000D01*
X56652223Y-73451828D01*
X56357343Y-73583520D01*
X56085739Y-74291036D01*
X56105564Y-75048632D01*
X56136368Y-75123000D01*
X51750000Y-75123000D01*
X51703841Y-75131685D01*
X51661447Y-75158965D01*
X51633006Y-75200590D01*
X51623000Y-75250000D01*
X51623000Y-76815000D01*
X49067466Y-76815000D01*
X48884590Y-76778624D01*
X48786751Y-76713250D01*
X48721376Y-76615409D01*
X48685000Y-76432534D01*
X48685000Y-73272223D01*
X56831828Y-73272223D01*
X58000000Y-74440395D01*
X59168172Y-73272223D01*
X59036480Y-72977343D01*
X58328964Y-72705739D01*
X57571368Y-72725564D01*
X56963520Y-72977343D01*
X56831828Y-73272223D01*
X48685000Y-73272223D01*
X48685000Y-53390000D01*
X48711193Y-53390000D01*
X48816663Y-53920235D01*
X49117017Y-54369746D01*
X49551412Y-54660000D01*
X49117017Y-54950254D01*
X48816663Y-55399765D01*
X48711193Y-55930000D01*
X48816663Y-56460235D01*
X49117017Y-56909746D01*
X49551412Y-57200000D01*
X49117017Y-57490254D01*
X48816663Y-57939765D01*
X48711193Y-58470000D01*
X48816663Y-59000235D01*
X49117017Y-59449746D01*
X49551412Y-59740000D01*
X49117017Y-60030254D01*
X48816663Y-60479765D01*
X48711193Y-61010000D01*
X48816663Y-61540235D01*
X49117017Y-61989746D01*
X49551412Y-62280000D01*
X49117017Y-62570254D01*
X48816663Y-63019765D01*
X48711193Y-63550000D01*
X48816663Y-64080235D01*
X49117017Y-64529746D01*
X49551412Y-64820000D01*
X49117017Y-65110254D01*
X48816663Y-65559765D01*
X48711193Y-66090000D01*
X48816663Y-66620235D01*
X49117017Y-67069746D01*
X49551412Y-67360000D01*
X49117017Y-67650254D01*
X48816663Y-68099765D01*
X48711193Y-68630000D01*
X48816663Y-69160235D01*
X49117017Y-69609746D01*
X49551412Y-69900000D01*
X49117017Y-70190254D01*
X48816663Y-70639765D01*
X48711193Y-71170000D01*
X48816663Y-71700235D01*
X49117017Y-72149746D01*
X49566528Y-72450100D01*
X50096763Y-72555570D01*
X50863237Y-72555570D01*
X51393472Y-72450100D01*
X51842983Y-72149746D01*
X52143337Y-71700235D01*
X52248807Y-71170000D01*
X52185971Y-70854100D01*
X58133300Y-70854100D01*
X58424139Y-70796248D01*
X58670701Y-70631501D01*
X60376080Y-68926122D01*
X60421567Y-68926162D01*
X60765343Y-68784117D01*
X61028592Y-68521327D01*
X61171238Y-68177799D01*
X61171562Y-67805833D01*
X61029517Y-67462057D01*
X60766727Y-67198808D01*
X60423199Y-67056162D01*
X60051233Y-67055838D01*
X59707457Y-67197883D01*
X59444208Y-67460673D01*
X59301562Y-67804201D01*
X59301521Y-67851077D01*
X57818498Y-69334100D01*
X52027164Y-69334100D01*
X52143337Y-69160235D01*
X52248807Y-68630000D01*
X52143337Y-68099765D01*
X51842983Y-67650254D01*
X51408588Y-67360000D01*
X51842983Y-67069746D01*
X52143337Y-66620235D01*
X52248807Y-66090000D01*
X52143337Y-65559765D01*
X51842983Y-65110254D01*
X51408588Y-64820000D01*
X51842983Y-64529746D01*
X52143337Y-64080235D01*
X52248807Y-63550000D01*
X52143337Y-63019765D01*
X51842983Y-62570254D01*
X51408588Y-62280000D01*
X51842983Y-61989746D01*
X52143337Y-61540235D01*
X52248807Y-61010000D01*
X52143337Y-60479765D01*
X51842983Y-60030254D01*
X51408588Y-59740000D01*
X51842983Y-59449746D01*
X52143337Y-59000235D01*
X52248807Y-58470000D01*
X52143337Y-57939765D01*
X51842983Y-57490254D01*
X51408588Y-57200000D01*
X51842983Y-56909746D01*
X52143337Y-56460235D01*
X52248807Y-55930000D01*
X52143337Y-55399765D01*
X51842983Y-54950254D01*
X51408588Y-54660000D01*
X51842983Y-54369746D01*
X52143337Y-53920235D01*
X52248807Y-53390000D01*
X52143337Y-52859765D01*
X51842983Y-52410254D01*
X51393472Y-52109900D01*
X51385928Y-52108399D01*
X51476817Y-52081499D01*
X51898798Y-51739944D01*
X52157950Y-51262903D01*
X52172133Y-51191275D01*
X52049479Y-50977000D01*
X50607000Y-50977000D01*
X50607000Y-50997000D01*
X50353000Y-50997000D01*
X50353000Y-50977000D01*
X48910521Y-50977000D01*
X48787867Y-51191275D01*
X48802050Y-51262903D01*
X49061202Y-51739944D01*
X49483183Y-52081499D01*
X49574072Y-52108399D01*
X49566528Y-52109900D01*
X49117017Y-52410254D01*
X48816663Y-52859765D01*
X48711193Y-53390000D01*
X48685000Y-53390000D01*
X48685000Y-43230000D01*
X48711193Y-43230000D01*
X48816663Y-43760235D01*
X49117017Y-44209746D01*
X49551412Y-44500000D01*
X49117017Y-44790254D01*
X48816663Y-45239765D01*
X48711193Y-45770000D01*
X48816663Y-46300235D01*
X49117017Y-46749746D01*
X49551412Y-47040000D01*
X49117017Y-47330254D01*
X48816663Y-47779765D01*
X48711193Y-48310000D01*
X48816663Y-48840235D01*
X49117017Y-49289746D01*
X49566528Y-49590100D01*
X49574072Y-49591601D01*
X49483183Y-49618501D01*
X49061202Y-49960056D01*
X48802050Y-50437097D01*
X48787867Y-50508725D01*
X48910521Y-50723000D01*
X50353000Y-50723000D01*
X50353000Y-50703000D01*
X50607000Y-50703000D01*
X50607000Y-50723000D01*
X52049479Y-50723000D01*
X52172133Y-50508725D01*
X52157950Y-50437097D01*
X51898798Y-49960056D01*
X51476817Y-49618501D01*
X51385928Y-49591601D01*
X51393472Y-49590100D01*
X51842983Y-49289746D01*
X52143337Y-48840235D01*
X52248807Y-48310000D01*
X52143337Y-47779765D01*
X51842983Y-47330254D01*
X51408588Y-47040000D01*
X51842983Y-46749746D01*
X52143337Y-46300235D01*
X52248807Y-45770000D01*
X52143337Y-45239765D01*
X51842983Y-44790254D01*
X51408588Y-44500000D01*
X51842983Y-44209746D01*
X52143337Y-43760235D01*
X52248807Y-43230000D01*
X63951193Y-43230000D01*
X64056663Y-43760235D01*
X64357017Y-44209746D01*
X64806528Y-44510100D01*
X64814072Y-44511601D01*
X64723183Y-44538501D01*
X64301202Y-44880056D01*
X64042050Y-45357097D01*
X64027867Y-45428725D01*
X64150521Y-45643000D01*
X65593000Y-45643000D01*
X65593000Y-45623000D01*
X65847000Y-45623000D01*
X65847000Y-45643000D01*
X67289479Y-45643000D01*
X67412133Y-45428725D01*
X67397950Y-45357097D01*
X67138798Y-44880056D01*
X66716817Y-44538501D01*
X66625928Y-44511601D01*
X66633472Y-44510100D01*
X67082983Y-44209746D01*
X67383337Y-43760235D01*
X67488807Y-43230000D01*
X67383337Y-42699765D01*
X67082983Y-42250254D01*
X66633472Y-41949900D01*
X66103237Y-41844430D01*
X65336763Y-41844430D01*
X64806528Y-41949900D01*
X64357017Y-42250254D01*
X64056663Y-42699765D01*
X63951193Y-43230000D01*
X52248807Y-43230000D01*
X52143337Y-42699765D01*
X51842983Y-42250254D01*
X51393472Y-41949900D01*
X50863237Y-41844430D01*
X50096763Y-41844430D01*
X49566528Y-41949900D01*
X49117017Y-42250254D01*
X48816663Y-42699765D01*
X48711193Y-43230000D01*
X48685000Y-43230000D01*
X48685000Y-39562540D01*
X54216215Y-39562540D01*
X54300709Y-39987319D01*
X54541326Y-40347429D01*
X54901436Y-40588046D01*
X55326215Y-40672540D01*
X55675585Y-40672540D01*
X56100364Y-40588046D01*
X56460474Y-40347429D01*
X56701091Y-39987319D01*
X56785585Y-39562540D01*
X59216215Y-39562540D01*
X59300709Y-39987319D01*
X59541326Y-40347429D01*
X59901436Y-40588046D01*
X60326215Y-40672540D01*
X60675585Y-40672540D01*
X61100364Y-40588046D01*
X61460474Y-40347429D01*
X61701091Y-39987319D01*
X61785585Y-39562540D01*
X61701091Y-39137761D01*
X61460474Y-38777651D01*
X61100364Y-38537034D01*
X60675585Y-38452540D01*
X60326215Y-38452540D01*
X59901436Y-38537034D01*
X59541326Y-38777651D01*
X59300709Y-39137761D01*
X59216215Y-39562540D01*
X56785585Y-39562540D01*
X56701091Y-39137761D01*
X56460474Y-38777651D01*
X56100364Y-38537034D01*
X55675585Y-38452540D01*
X55326215Y-38452540D01*
X54901436Y-38537034D01*
X54541326Y-38777651D01*
X54300709Y-39137761D01*
X54216215Y-39562540D01*
X48685000Y-39562540D01*
X48685000Y-37882984D01*
X48978309Y-38176805D01*
X49575349Y-38424718D01*
X50221814Y-38425282D01*
X50819286Y-38178412D01*
X51276805Y-37721691D01*
X51524718Y-37124651D01*
X51525282Y-36478186D01*
X51278412Y-35880714D01*
X50821691Y-35423195D01*
X50224651Y-35175282D01*
X49578186Y-35174718D01*
X48980714Y-35421588D01*
X48685000Y-35716786D01*
X48685000Y-34567466D01*
X48721376Y-34384591D01*
X48786751Y-34286750D01*
X48884590Y-34221376D01*
X49067466Y-34185000D01*
X52432532Y-34185000D01*
X52711079Y-34240407D01*
X52711079Y-34240407D01*
G37*
X52711079Y-34240407D02*
X52890026Y-34359975D01*
X53009593Y-34538919D01*
X53065000Y-34817468D01*
X53065000Y-35000000D01*
X53117143Y-35262138D01*
X53265632Y-35484368D01*
X53487862Y-35632857D01*
X53750000Y-35685000D01*
X53806613Y-35685000D01*
X53698334Y-35757350D01*
X53452297Y-36125570D01*
X53365900Y-36559916D01*
X53365900Y-37165164D01*
X53452297Y-37599510D01*
X53698334Y-37967730D01*
X54066554Y-38213767D01*
X54500900Y-38300164D01*
X54935246Y-38213767D01*
X55303466Y-37967730D01*
X55549503Y-37599510D01*
X55635900Y-37165164D01*
X55635900Y-36559916D01*
X55549503Y-36125570D01*
X55303466Y-35757350D01*
X55195187Y-35685000D01*
X56082560Y-35685000D01*
X56082560Y-38070000D01*
X56126838Y-38305317D01*
X56265910Y-38521441D01*
X56478110Y-38666431D01*
X56730000Y-38717440D01*
X59270000Y-38717440D01*
X59505317Y-38673162D01*
X59721441Y-38534090D01*
X59866431Y-38321890D01*
X59917440Y-38070000D01*
X59917440Y-37481233D01*
X60132701Y-37337401D01*
X60365900Y-37104202D01*
X60365900Y-37165164D01*
X60452297Y-37599510D01*
X60698334Y-37967730D01*
X61066554Y-38213767D01*
X61500900Y-38300164D01*
X61935246Y-38213767D01*
X62303466Y-37967730D01*
X62549503Y-37599510D01*
X62635900Y-37165164D01*
X62635900Y-36559916D01*
X62624698Y-36503600D01*
X68498700Y-36503600D01*
X68498700Y-46369800D01*
X68556552Y-46660639D01*
X68721299Y-46907201D01*
X69287017Y-47472919D01*
X69132559Y-47572310D01*
X68987569Y-47784510D01*
X68936560Y-48036400D01*
X68936560Y-49328900D01*
X67906300Y-49328900D01*
X67615461Y-49386752D01*
X67368899Y-49551499D01*
X67063297Y-49857101D01*
X66648588Y-49580000D01*
X67082983Y-49289746D01*
X67383337Y-48840235D01*
X67488807Y-48310000D01*
X67383337Y-47779765D01*
X67082983Y-47330254D01*
X66633472Y-47029900D01*
X66625928Y-47028399D01*
X66716817Y-47001499D01*
X67138798Y-46659944D01*
X67397950Y-46182903D01*
X67412133Y-46111275D01*
X67289479Y-45897000D01*
X65847000Y-45897000D01*
X65847000Y-45917000D01*
X65593000Y-45917000D01*
X65593000Y-45897000D01*
X64150521Y-45897000D01*
X64027867Y-46111275D01*
X64042050Y-46182903D01*
X64301202Y-46659944D01*
X64723183Y-47001499D01*
X64814072Y-47028399D01*
X64806528Y-47029900D01*
X64357017Y-47330254D01*
X64056663Y-47779765D01*
X63951193Y-48310000D01*
X64056663Y-48840235D01*
X64357017Y-49289746D01*
X64791412Y-49580000D01*
X64357017Y-49870254D01*
X64056663Y-50319765D01*
X63958541Y-50813061D01*
X63563237Y-50734430D01*
X62796763Y-50734430D01*
X62266528Y-50839900D01*
X61817017Y-51140254D01*
X61516663Y-51589765D01*
X61411193Y-52120000D01*
X61474467Y-52438100D01*
X56174263Y-52438100D01*
X56142127Y-52405908D01*
X55798599Y-52263262D01*
X55426633Y-52262938D01*
X55082857Y-52404983D01*
X54819608Y-52667773D01*
X54676962Y-53011301D01*
X54676638Y-53383267D01*
X54818683Y-53727043D01*
X55081473Y-53990292D01*
X55425001Y-54132938D01*
X55796967Y-54133262D01*
X56140743Y-53991217D01*
X56173918Y-53958100D01*
X61631366Y-53958100D01*
X61516663Y-54129765D01*
X61411193Y-54660000D01*
X61516663Y-55190235D01*
X61817017Y-55639746D01*
X62266528Y-55940100D01*
X62796763Y-56045570D01*
X63563237Y-56045570D01*
X63958541Y-55966939D01*
X64056663Y-56460235D01*
X64357017Y-56909746D01*
X64791412Y-57200000D01*
X64357017Y-57490254D01*
X64056663Y-57939765D01*
X63951193Y-58470000D01*
X64056663Y-59000235D01*
X64357017Y-59449746D01*
X64791412Y-59740000D01*
X64357017Y-60030254D01*
X64056663Y-60479765D01*
X63951193Y-61010000D01*
X64056663Y-61540235D01*
X64357017Y-61989746D01*
X64791412Y-62280000D01*
X64357017Y-62570254D01*
X64056663Y-63019765D01*
X63951193Y-63550000D01*
X64056663Y-64080235D01*
X64172836Y-64254100D01*
X55805702Y-64254100D01*
X55680122Y-64128520D01*
X55680162Y-64083033D01*
X55538117Y-63739257D01*
X55275327Y-63476008D01*
X54931799Y-63333362D01*
X54559833Y-63333038D01*
X54216057Y-63475083D01*
X53952808Y-63737873D01*
X53810162Y-64081401D01*
X53809838Y-64453367D01*
X53951883Y-64797143D01*
X54214673Y-65060392D01*
X54558201Y-65203038D01*
X54605077Y-65203079D01*
X54953499Y-65551501D01*
X55200061Y-65716248D01*
X55490900Y-65774100D01*
X64014029Y-65774100D01*
X63951193Y-66090000D01*
X64056663Y-66620235D01*
X64357017Y-67069746D01*
X64791412Y-67360000D01*
X64357017Y-67650254D01*
X64056663Y-68099765D01*
X63951193Y-68630000D01*
X64056663Y-69160235D01*
X64357017Y-69609746D01*
X64791412Y-69900000D01*
X64357017Y-70190254D01*
X64056663Y-70639765D01*
X63951193Y-71170000D01*
X64056663Y-71700235D01*
X64357017Y-72149746D01*
X64806528Y-72450100D01*
X65336763Y-72555570D01*
X66103237Y-72555570D01*
X66633472Y-72450100D01*
X67082983Y-72149746D01*
X67383337Y-71700235D01*
X67488807Y-71170000D01*
X67383337Y-70639765D01*
X67082983Y-70190254D01*
X66648588Y-69900000D01*
X67082983Y-69609746D01*
X67383337Y-69160235D01*
X67488807Y-68630000D01*
X67383337Y-68099765D01*
X67082983Y-67650254D01*
X66648588Y-67360000D01*
X67082983Y-67069746D01*
X67383337Y-66620235D01*
X67488807Y-66090000D01*
X67383337Y-65559765D01*
X67082983Y-65110254D01*
X66648588Y-64820000D01*
X67082983Y-64529746D01*
X67383337Y-64080235D01*
X67488807Y-63550000D01*
X67383337Y-63019765D01*
X67082983Y-62570254D01*
X66648588Y-62280000D01*
X67082983Y-61989746D01*
X67383337Y-61540235D01*
X67488807Y-61010000D01*
X67383337Y-60479765D01*
X67082983Y-60030254D01*
X66648588Y-59740000D01*
X67082983Y-59449746D01*
X67383337Y-59000235D01*
X67488807Y-58470000D01*
X67383337Y-57939765D01*
X67082983Y-57490254D01*
X66648588Y-57200000D01*
X67082983Y-56909746D01*
X67383337Y-56460235D01*
X67488807Y-55930000D01*
X67387362Y-55420000D01*
X67818700Y-55420000D01*
X67818700Y-66729900D01*
X67876552Y-67020739D01*
X68041299Y-67267301D01*
X69266962Y-68492964D01*
X69030729Y-68846511D01*
X68916655Y-69420000D01*
X69030729Y-69993489D01*
X69355585Y-70479670D01*
X69841766Y-70804526D01*
X70415255Y-70918600D01*
X70784745Y-70918600D01*
X71358234Y-70804526D01*
X71844415Y-70479670D01*
X72169271Y-69993489D01*
X72283345Y-69420000D01*
X72169271Y-68846511D01*
X71844415Y-68360330D01*
X71529634Y-68150000D01*
X71844415Y-67939670D01*
X72169271Y-67453489D01*
X72283345Y-66880000D01*
X72169271Y-66306511D01*
X71933038Y-65952964D01*
X72315000Y-65571002D01*
X72315000Y-73118805D01*
X72262291Y-72991239D01*
X71512707Y-72240345D01*
X70532827Y-71833464D01*
X69471828Y-71832538D01*
X68491239Y-72237709D01*
X67740345Y-72987293D01*
X67333464Y-73967173D01*
X67332538Y-75028172D01*
X67737709Y-76008761D01*
X68487293Y-76759655D01*
X68620579Y-76815000D01*
X64627000Y-76815000D01*
X64627000Y-75250000D01*
X64618315Y-75203841D01*
X64591035Y-75161447D01*
X64549410Y-75133006D01*
X64500000Y-75123000D01*
X59847451Y-75123000D01*
X59914261Y-74948964D01*
X59894436Y-74191368D01*
X59642657Y-73583520D01*
X59347777Y-73451828D01*
X58179605Y-74620000D01*
X58193748Y-74634143D01*
X58014143Y-74813748D01*
X58000000Y-74799605D01*
X57985858Y-74813748D01*
X57806253Y-74634143D01*
X57820395Y-74620000D01*
X56652223Y-73451828D01*
X56357343Y-73583520D01*
X56085739Y-74291036D01*
X56105564Y-75048632D01*
X56136368Y-75123000D01*
X51750000Y-75123000D01*
X51703841Y-75131685D01*
X51661447Y-75158965D01*
X51633006Y-75200590D01*
X51623000Y-75250000D01*
X51623000Y-76815000D01*
X49067466Y-76815000D01*
X48884590Y-76778624D01*
X48786751Y-76713250D01*
X48721376Y-76615409D01*
X48685000Y-76432534D01*
X48685000Y-73272223D01*
X56831828Y-73272223D01*
X58000000Y-74440395D01*
X59168172Y-73272223D01*
X59036480Y-72977343D01*
X58328964Y-72705739D01*
X57571368Y-72725564D01*
X56963520Y-72977343D01*
X56831828Y-73272223D01*
X48685000Y-73272223D01*
X48685000Y-53390000D01*
X48711193Y-53390000D01*
X48816663Y-53920235D01*
X49117017Y-54369746D01*
X49551412Y-54660000D01*
X49117017Y-54950254D01*
X48816663Y-55399765D01*
X48711193Y-55930000D01*
X48816663Y-56460235D01*
X49117017Y-56909746D01*
X49551412Y-57200000D01*
X49117017Y-57490254D01*
X48816663Y-57939765D01*
X48711193Y-58470000D01*
X48816663Y-59000235D01*
X49117017Y-59449746D01*
X49551412Y-59740000D01*
X49117017Y-60030254D01*
X48816663Y-60479765D01*
X48711193Y-61010000D01*
X48816663Y-61540235D01*
X49117017Y-61989746D01*
X49551412Y-62280000D01*
X49117017Y-62570254D01*
X48816663Y-63019765D01*
X48711193Y-63550000D01*
X48816663Y-64080235D01*
X49117017Y-64529746D01*
X49551412Y-64820000D01*
X49117017Y-65110254D01*
X48816663Y-65559765D01*
X48711193Y-66090000D01*
X48816663Y-66620235D01*
X49117017Y-67069746D01*
X49551412Y-67360000D01*
X49117017Y-67650254D01*
X48816663Y-68099765D01*
X48711193Y-68630000D01*
X48816663Y-69160235D01*
X49117017Y-69609746D01*
X49551412Y-69900000D01*
X49117017Y-70190254D01*
X48816663Y-70639765D01*
X48711193Y-71170000D01*
X48816663Y-71700235D01*
X49117017Y-72149746D01*
X49566528Y-72450100D01*
X50096763Y-72555570D01*
X50863237Y-72555570D01*
X51393472Y-72450100D01*
X51842983Y-72149746D01*
X52143337Y-71700235D01*
X52248807Y-71170000D01*
X52185971Y-70854100D01*
X58133300Y-70854100D01*
X58424139Y-70796248D01*
X58670701Y-70631501D01*
X60376080Y-68926122D01*
X60421567Y-68926162D01*
X60765343Y-68784117D01*
X61028592Y-68521327D01*
X61171238Y-68177799D01*
X61171562Y-67805833D01*
X61029517Y-67462057D01*
X60766727Y-67198808D01*
X60423199Y-67056162D01*
X60051233Y-67055838D01*
X59707457Y-67197883D01*
X59444208Y-67460673D01*
X59301562Y-67804201D01*
X59301521Y-67851077D01*
X57818498Y-69334100D01*
X52027164Y-69334100D01*
X52143337Y-69160235D01*
X52248807Y-68630000D01*
X52143337Y-68099765D01*
X51842983Y-67650254D01*
X51408588Y-67360000D01*
X51842983Y-67069746D01*
X52143337Y-66620235D01*
X52248807Y-66090000D01*
X52143337Y-65559765D01*
X51842983Y-65110254D01*
X51408588Y-64820000D01*
X51842983Y-64529746D01*
X52143337Y-64080235D01*
X52248807Y-63550000D01*
X52143337Y-63019765D01*
X51842983Y-62570254D01*
X51408588Y-62280000D01*
X51842983Y-61989746D01*
X52143337Y-61540235D01*
X52248807Y-61010000D01*
X52143337Y-60479765D01*
X51842983Y-60030254D01*
X51408588Y-59740000D01*
X51842983Y-59449746D01*
X52143337Y-59000235D01*
X52248807Y-58470000D01*
X52143337Y-57939765D01*
X51842983Y-57490254D01*
X51408588Y-57200000D01*
X51842983Y-56909746D01*
X52143337Y-56460235D01*
X52248807Y-55930000D01*
X52143337Y-55399765D01*
X51842983Y-54950254D01*
X51408588Y-54660000D01*
X51842983Y-54369746D01*
X52143337Y-53920235D01*
X52248807Y-53390000D01*
X52143337Y-52859765D01*
X51842983Y-52410254D01*
X51393472Y-52109900D01*
X51385928Y-52108399D01*
X51476817Y-52081499D01*
X51898798Y-51739944D01*
X52157950Y-51262903D01*
X52172133Y-51191275D01*
X52049479Y-50977000D01*
X50607000Y-50977000D01*
X50607000Y-50997000D01*
X50353000Y-50997000D01*
X50353000Y-50977000D01*
X48910521Y-50977000D01*
X48787867Y-51191275D01*
X48802050Y-51262903D01*
X49061202Y-51739944D01*
X49483183Y-52081499D01*
X49574072Y-52108399D01*
X49566528Y-52109900D01*
X49117017Y-52410254D01*
X48816663Y-52859765D01*
X48711193Y-53390000D01*
X48685000Y-53390000D01*
X48685000Y-43230000D01*
X48711193Y-43230000D01*
X48816663Y-43760235D01*
X49117017Y-44209746D01*
X49551412Y-44500000D01*
X49117017Y-44790254D01*
X48816663Y-45239765D01*
X48711193Y-45770000D01*
X48816663Y-46300235D01*
X49117017Y-46749746D01*
X49551412Y-47040000D01*
X49117017Y-47330254D01*
X48816663Y-47779765D01*
X48711193Y-48310000D01*
X48816663Y-48840235D01*
X49117017Y-49289746D01*
X49566528Y-49590100D01*
X49574072Y-49591601D01*
X49483183Y-49618501D01*
X49061202Y-49960056D01*
X48802050Y-50437097D01*
X48787867Y-50508725D01*
X48910521Y-50723000D01*
X50353000Y-50723000D01*
X50353000Y-50703000D01*
X50607000Y-50703000D01*
X50607000Y-50723000D01*
X52049479Y-50723000D01*
X52172133Y-50508725D01*
X52157950Y-50437097D01*
X51898798Y-49960056D01*
X51476817Y-49618501D01*
X51385928Y-49591601D01*
X51393472Y-49590100D01*
X51842983Y-49289746D01*
X52143337Y-48840235D01*
X52248807Y-48310000D01*
X52143337Y-47779765D01*
X51842983Y-47330254D01*
X51408588Y-47040000D01*
X51842983Y-46749746D01*
X52143337Y-46300235D01*
X52248807Y-45770000D01*
X52143337Y-45239765D01*
X51842983Y-44790254D01*
X51408588Y-44500000D01*
X51842983Y-44209746D01*
X52143337Y-43760235D01*
X52248807Y-43230000D01*
X63951193Y-43230000D01*
X64056663Y-43760235D01*
X64357017Y-44209746D01*
X64806528Y-44510100D01*
X64814072Y-44511601D01*
X64723183Y-44538501D01*
X64301202Y-44880056D01*
X64042050Y-45357097D01*
X64027867Y-45428725D01*
X64150521Y-45643000D01*
X65593000Y-45643000D01*
X65593000Y-45623000D01*
X65847000Y-45623000D01*
X65847000Y-45643000D01*
X67289479Y-45643000D01*
X67412133Y-45428725D01*
X67397950Y-45357097D01*
X67138798Y-44880056D01*
X66716817Y-44538501D01*
X66625928Y-44511601D01*
X66633472Y-44510100D01*
X67082983Y-44209746D01*
X67383337Y-43760235D01*
X67488807Y-43230000D01*
X67383337Y-42699765D01*
X67082983Y-42250254D01*
X66633472Y-41949900D01*
X66103237Y-41844430D01*
X65336763Y-41844430D01*
X64806528Y-41949900D01*
X64357017Y-42250254D01*
X64056663Y-42699765D01*
X63951193Y-43230000D01*
X52248807Y-43230000D01*
X52143337Y-42699765D01*
X51842983Y-42250254D01*
X51393472Y-41949900D01*
X50863237Y-41844430D01*
X50096763Y-41844430D01*
X49566528Y-41949900D01*
X49117017Y-42250254D01*
X48816663Y-42699765D01*
X48711193Y-43230000D01*
X48685000Y-43230000D01*
X48685000Y-39562540D01*
X54216215Y-39562540D01*
X54300709Y-39987319D01*
X54541326Y-40347429D01*
X54901436Y-40588046D01*
X55326215Y-40672540D01*
X55675585Y-40672540D01*
X56100364Y-40588046D01*
X56460474Y-40347429D01*
X56701091Y-39987319D01*
X56785585Y-39562540D01*
X59216215Y-39562540D01*
X59300709Y-39987319D01*
X59541326Y-40347429D01*
X59901436Y-40588046D01*
X60326215Y-40672540D01*
X60675585Y-40672540D01*
X61100364Y-40588046D01*
X61460474Y-40347429D01*
X61701091Y-39987319D01*
X61785585Y-39562540D01*
X61701091Y-39137761D01*
X61460474Y-38777651D01*
X61100364Y-38537034D01*
X60675585Y-38452540D01*
X60326215Y-38452540D01*
X59901436Y-38537034D01*
X59541326Y-38777651D01*
X59300709Y-39137761D01*
X59216215Y-39562540D01*
X56785585Y-39562540D01*
X56701091Y-39137761D01*
X56460474Y-38777651D01*
X56100364Y-38537034D01*
X55675585Y-38452540D01*
X55326215Y-38452540D01*
X54901436Y-38537034D01*
X54541326Y-38777651D01*
X54300709Y-39137761D01*
X54216215Y-39562540D01*
X48685000Y-39562540D01*
X48685000Y-37882984D01*
X48978309Y-38176805D01*
X49575349Y-38424718D01*
X50221814Y-38425282D01*
X50819286Y-38178412D01*
X51276805Y-37721691D01*
X51524718Y-37124651D01*
X51525282Y-36478186D01*
X51278412Y-35880714D01*
X50821691Y-35423195D01*
X50224651Y-35175282D01*
X49578186Y-35174718D01*
X48980714Y-35421588D01*
X48685000Y-35716786D01*
X48685000Y-34567466D01*
X48721376Y-34384591D01*
X48786751Y-34286750D01*
X48884590Y-34221376D01*
X49067466Y-34185000D01*
X52432532Y-34185000D01*
X52711079Y-34240407D01*
G36*
X70727000Y-64213000D02*
X70747000Y-64213000D01*
X70747000Y-64467000D01*
X70727000Y-64467000D01*
X70727000Y-64487000D01*
X70473000Y-64487000D01*
X70473000Y-64467000D01*
X70453000Y-64467000D01*
X70453000Y-64213000D01*
X70473000Y-64213000D01*
X70473000Y-64193000D01*
X70727000Y-64193000D01*
X70727000Y-64213000D01*
X70727000Y-64213000D01*
G37*
X70727000Y-64213000D02*
X70747000Y-64213000D01*
X70747000Y-64467000D01*
X70727000Y-64467000D01*
X70727000Y-64487000D01*
X70473000Y-64487000D01*
X70473000Y-64467000D01*
X70453000Y-64467000D01*
X70453000Y-64213000D01*
X70473000Y-64213000D01*
X70473000Y-64193000D01*
X70727000Y-64193000D01*
X70727000Y-64213000D01*
G36*
X70727000Y-56393000D02*
X70747000Y-56393000D01*
X70747000Y-56647000D01*
X70727000Y-56647000D01*
X70727000Y-57860924D01*
X70961913Y-58005184D01*
X71191000Y-57925050D01*
X71191000Y-60288960D01*
X69584000Y-60288960D01*
X69348683Y-60333238D01*
X69338700Y-60339662D01*
X69338700Y-57501940D01*
X69685680Y-57811954D01*
X70238087Y-58005184D01*
X70473000Y-57860924D01*
X70473000Y-56647000D01*
X70453000Y-56647000D01*
X70453000Y-56393000D01*
X70473000Y-56393000D01*
X70473000Y-56373000D01*
X70727000Y-56373000D01*
X70727000Y-56393000D01*
X70727000Y-56393000D01*
G37*
X70727000Y-56393000D02*
X70747000Y-56393000D01*
X70747000Y-56647000D01*
X70727000Y-56647000D01*
X70727000Y-57860924D01*
X70961913Y-58005184D01*
X71191000Y-57925050D01*
X71191000Y-60288960D01*
X69584000Y-60288960D01*
X69348683Y-60333238D01*
X69338700Y-60339662D01*
X69338700Y-57501940D01*
X69685680Y-57811954D01*
X70238087Y-58005184D01*
X70473000Y-57860924D01*
X70473000Y-56647000D01*
X70453000Y-56647000D01*
X70453000Y-56393000D01*
X70473000Y-56393000D01*
X70473000Y-56373000D01*
X70727000Y-56373000D01*
X70727000Y-56393000D01*
G36*
X72115409Y-34221376D02*
X72213250Y-34286751D01*
X72278624Y-34384590D01*
X72315000Y-34567466D01*
X72315000Y-52748998D01*
X71933038Y-52367036D01*
X72169271Y-52013489D01*
X72283345Y-51440000D01*
X72169271Y-50866511D01*
X71844415Y-50380330D01*
X71830087Y-50370757D01*
X71851317Y-50366762D01*
X72067441Y-50227690D01*
X72212431Y-50015490D01*
X72263440Y-49763600D01*
X72263440Y-48036400D01*
X72219162Y-47801083D01*
X72080090Y-47584959D01*
X71867890Y-47439969D01*
X71616000Y-47388960D01*
X71281233Y-47388960D01*
X71137401Y-47173699D01*
X70018700Y-46054998D01*
X70018700Y-45039720D01*
X70415255Y-45118600D01*
X70784745Y-45118600D01*
X71358234Y-45004526D01*
X71844415Y-44679670D01*
X72169271Y-44193489D01*
X72283345Y-43620000D01*
X72169271Y-43046511D01*
X71844415Y-42560330D01*
X71529634Y-42350000D01*
X71844415Y-42139670D01*
X72169271Y-41653489D01*
X72283345Y-41080000D01*
X72169271Y-40506511D01*
X71844415Y-40020330D01*
X71534931Y-39813539D01*
X71950732Y-39442036D01*
X72204709Y-38914791D01*
X72207358Y-38899026D01*
X72086217Y-38667000D01*
X70727000Y-38667000D01*
X70727000Y-38687000D01*
X70473000Y-38687000D01*
X70473000Y-38667000D01*
X70453000Y-38667000D01*
X70453000Y-38413000D01*
X70473000Y-38413000D01*
X70473000Y-38393000D01*
X70727000Y-38393000D01*
X70727000Y-38413000D01*
X72086217Y-38413000D01*
X72207358Y-38180974D01*
X72204709Y-38165209D01*
X71950732Y-37637964D01*
X71775155Y-37481093D01*
X71851317Y-37466762D01*
X72067441Y-37327690D01*
X72212431Y-37115490D01*
X72263440Y-36863600D01*
X72263440Y-35136400D01*
X72219162Y-34901083D01*
X72080090Y-34684959D01*
X71867890Y-34539969D01*
X71616000Y-34488960D01*
X69584000Y-34488960D01*
X69348683Y-34533238D01*
X69132559Y-34672310D01*
X68987569Y-34884510D01*
X68967503Y-34983600D01*
X62935000Y-34983600D01*
X62935000Y-34567466D01*
X62965506Y-34414100D01*
X63164100Y-34215506D01*
X63317466Y-34185000D01*
X71932534Y-34185000D01*
X72115409Y-34221376D01*
X72115409Y-34221376D01*
G37*
X72115409Y-34221376D02*
X72213250Y-34286751D01*
X72278624Y-34384590D01*
X72315000Y-34567466D01*
X72315000Y-52748998D01*
X71933038Y-52367036D01*
X72169271Y-52013489D01*
X72283345Y-51440000D01*
X72169271Y-50866511D01*
X71844415Y-50380330D01*
X71830087Y-50370757D01*
X71851317Y-50366762D01*
X72067441Y-50227690D01*
X72212431Y-50015490D01*
X72263440Y-49763600D01*
X72263440Y-48036400D01*
X72219162Y-47801083D01*
X72080090Y-47584959D01*
X71867890Y-47439969D01*
X71616000Y-47388960D01*
X71281233Y-47388960D01*
X71137401Y-47173699D01*
X70018700Y-46054998D01*
X70018700Y-45039720D01*
X70415255Y-45118600D01*
X70784745Y-45118600D01*
X71358234Y-45004526D01*
X71844415Y-44679670D01*
X72169271Y-44193489D01*
X72283345Y-43620000D01*
X72169271Y-43046511D01*
X71844415Y-42560330D01*
X71529634Y-42350000D01*
X71844415Y-42139670D01*
X72169271Y-41653489D01*
X72283345Y-41080000D01*
X72169271Y-40506511D01*
X71844415Y-40020330D01*
X71534931Y-39813539D01*
X71950732Y-39442036D01*
X72204709Y-38914791D01*
X72207358Y-38899026D01*
X72086217Y-38667000D01*
X70727000Y-38667000D01*
X70727000Y-38687000D01*
X70473000Y-38687000D01*
X70473000Y-38667000D01*
X70453000Y-38667000D01*
X70453000Y-38413000D01*
X70473000Y-38413000D01*
X70473000Y-38393000D01*
X70727000Y-38393000D01*
X70727000Y-38413000D01*
X72086217Y-38413000D01*
X72207358Y-38180974D01*
X72204709Y-38165209D01*
X71950732Y-37637964D01*
X71775155Y-37481093D01*
X71851317Y-37466762D01*
X72067441Y-37327690D01*
X72212431Y-37115490D01*
X72263440Y-36863600D01*
X72263440Y-35136400D01*
X72219162Y-34901083D01*
X72080090Y-34684959D01*
X71867890Y-34539969D01*
X71616000Y-34488960D01*
X69584000Y-34488960D01*
X69348683Y-34533238D01*
X69132559Y-34672310D01*
X68987569Y-34884510D01*
X68967503Y-34983600D01*
X62935000Y-34983600D01*
X62935000Y-34567466D01*
X62965506Y-34414100D01*
X63164100Y-34215506D01*
X63317466Y-34185000D01*
X71932534Y-34185000D01*
X72115409Y-34221376D01*
M02*
