G04 #@! TF.FileFunction,Legend,Bot*
%FSLAX46Y46*%
G04 Gerber Fmt 4.6, Leading zero omitted, Abs format (unit mm)*
G04 Created by KiCad (PCBNEW 4.0.2-stable) date Lundi 27 juin 2016 03:17:05*
%MOMM*%
G01*
G04 APERTURE LIST*
%ADD10C,0.100000*%
%ADD11C,0.200000*%
%ADD12C,0.300000*%
%ADD13C,0.150000*%
G04 APERTURE END LIST*
D10*
D11*
X62971429Y-71701905D02*
X62971429Y-70901905D01*
X62704762Y-71473333D01*
X62438095Y-70901905D01*
X62438095Y-71701905D01*
X62133333Y-71168571D02*
X61942857Y-71701905D01*
X61752381Y-71168571D02*
X61942857Y-71701905D01*
X62019048Y-71892381D01*
X62057143Y-71930476D01*
X62133333Y-71968571D01*
X61485714Y-71663810D02*
X61371428Y-71701905D01*
X61180952Y-71701905D01*
X61104762Y-71663810D01*
X61066666Y-71625714D01*
X61028571Y-71549524D01*
X61028571Y-71473333D01*
X61066666Y-71397143D01*
X61104762Y-71359048D01*
X61180952Y-71320952D01*
X61333333Y-71282857D01*
X61409524Y-71244762D01*
X61447619Y-71206667D01*
X61485714Y-71130476D01*
X61485714Y-71054286D01*
X61447619Y-70978095D01*
X61409524Y-70940000D01*
X61333333Y-70901905D01*
X61142857Y-70901905D01*
X61028571Y-70940000D01*
X60685714Y-71701905D02*
X60685714Y-70901905D01*
X60342857Y-70978095D02*
X60304762Y-70940000D01*
X60228571Y-70901905D01*
X60038095Y-70901905D01*
X59961905Y-70940000D01*
X59923809Y-70978095D01*
X59885714Y-71054286D01*
X59885714Y-71130476D01*
X59923809Y-71244762D01*
X60380952Y-71701905D01*
X59885714Y-71701905D01*
X59085714Y-71625714D02*
X59123809Y-71663810D01*
X59238095Y-71701905D01*
X59314285Y-71701905D01*
X59428571Y-71663810D01*
X59504762Y-71587619D01*
X59542857Y-71511429D01*
X59580952Y-71359048D01*
X59580952Y-71244762D01*
X59542857Y-71092381D01*
X59504762Y-71016190D01*
X59428571Y-70940000D01*
X59314285Y-70901905D01*
X59238095Y-70901905D01*
X59123809Y-70940000D01*
X59085714Y-70978095D01*
X58742857Y-71701905D02*
X58742857Y-70901905D01*
X58285714Y-71701905D01*
X58285714Y-70901905D01*
X57790476Y-71701905D02*
X57866667Y-71663810D01*
X57904762Y-71625714D01*
X57942857Y-71549524D01*
X57942857Y-71320952D01*
X57904762Y-71244762D01*
X57866667Y-71206667D01*
X57790476Y-71168571D01*
X57676190Y-71168571D01*
X57600000Y-71206667D01*
X57561905Y-71244762D01*
X57523809Y-71320952D01*
X57523809Y-71549524D01*
X57561905Y-71625714D01*
X57600000Y-71663810D01*
X57676190Y-71701905D01*
X57790476Y-71701905D01*
X56838095Y-71701905D02*
X56838095Y-70901905D01*
X56838095Y-71663810D02*
X56914285Y-71701905D01*
X57066666Y-71701905D01*
X57142857Y-71663810D01*
X57180952Y-71625714D01*
X57219047Y-71549524D01*
X57219047Y-71320952D01*
X57180952Y-71244762D01*
X57142857Y-71206667D01*
X57066666Y-71168571D01*
X56914285Y-71168571D01*
X56838095Y-71206667D01*
X56152380Y-71663810D02*
X56228570Y-71701905D01*
X56380951Y-71701905D01*
X56457142Y-71663810D01*
X56495237Y-71587619D01*
X56495237Y-71282857D01*
X56457142Y-71206667D01*
X56380951Y-71168571D01*
X56228570Y-71168571D01*
X56152380Y-71206667D01*
X56114285Y-71282857D01*
X56114285Y-71359048D01*
X56495237Y-71435238D01*
X55238094Y-71168571D02*
X55047618Y-71701905D01*
X54857142Y-71168571D01*
X54133332Y-71701905D02*
X54590475Y-71701905D01*
X54361904Y-71701905D02*
X54361904Y-70901905D01*
X54438094Y-71016190D01*
X54514285Y-71092381D01*
X54590475Y-71130476D01*
X53790475Y-71625714D02*
X53752380Y-71663810D01*
X53790475Y-71701905D01*
X53828570Y-71663810D01*
X53790475Y-71625714D01*
X53790475Y-71701905D01*
X53257142Y-70901905D02*
X53180951Y-70901905D01*
X53104761Y-70940000D01*
X53066666Y-70978095D01*
X53028570Y-71054286D01*
X52990475Y-71206667D01*
X52990475Y-71397143D01*
X53028570Y-71549524D01*
X53066666Y-71625714D01*
X53104761Y-71663810D01*
X53180951Y-71701905D01*
X53257142Y-71701905D01*
X53333332Y-71663810D01*
X53371428Y-71625714D01*
X53409523Y-71549524D01*
X53447618Y-71397143D01*
X53447618Y-71206667D01*
X53409523Y-71054286D01*
X53371428Y-70978095D01*
X53333332Y-70940000D01*
X53257142Y-70901905D01*
X66742858Y-73021905D02*
X66742858Y-72221905D01*
X66400001Y-73021905D02*
X66400001Y-72602857D01*
X66438096Y-72526667D01*
X66514286Y-72488571D01*
X66628572Y-72488571D01*
X66704763Y-72526667D01*
X66742858Y-72564762D01*
X66133334Y-72488571D02*
X65828572Y-72488571D01*
X66019048Y-72221905D02*
X66019048Y-72907619D01*
X65980953Y-72983810D01*
X65904762Y-73021905D01*
X65828572Y-73021905D01*
X65676191Y-72488571D02*
X65371429Y-72488571D01*
X65561905Y-72221905D02*
X65561905Y-72907619D01*
X65523810Y-72983810D01*
X65447619Y-73021905D01*
X65371429Y-73021905D01*
X65104762Y-72488571D02*
X65104762Y-73288571D01*
X65104762Y-72526667D02*
X65028571Y-72488571D01*
X64876190Y-72488571D01*
X64800000Y-72526667D01*
X64761905Y-72564762D01*
X64723809Y-72640952D01*
X64723809Y-72869524D01*
X64761905Y-72945714D01*
X64800000Y-72983810D01*
X64876190Y-73021905D01*
X65028571Y-73021905D01*
X65104762Y-72983810D01*
X64380952Y-72945714D02*
X64342857Y-72983810D01*
X64380952Y-73021905D01*
X64419047Y-72983810D01*
X64380952Y-72945714D01*
X64380952Y-73021905D01*
X64380952Y-72526667D02*
X64342857Y-72564762D01*
X64380952Y-72602857D01*
X64419047Y-72564762D01*
X64380952Y-72526667D01*
X64380952Y-72602857D01*
X63428571Y-72183810D02*
X64114286Y-73212381D01*
X62590476Y-72183810D02*
X63276191Y-73212381D01*
X61980953Y-72488571D02*
X61980953Y-73136190D01*
X62019048Y-73212381D01*
X62057143Y-73250476D01*
X62133334Y-73288571D01*
X62247619Y-73288571D01*
X62323810Y-73250476D01*
X61980953Y-72983810D02*
X62057143Y-73021905D01*
X62209524Y-73021905D01*
X62285715Y-72983810D01*
X62323810Y-72945714D01*
X62361905Y-72869524D01*
X62361905Y-72640952D01*
X62323810Y-72564762D01*
X62285715Y-72526667D01*
X62209524Y-72488571D01*
X62057143Y-72488571D01*
X61980953Y-72526667D01*
X61600000Y-73021905D02*
X61600000Y-72488571D01*
X61600000Y-72221905D02*
X61638095Y-72260000D01*
X61600000Y-72298095D01*
X61561905Y-72260000D01*
X61600000Y-72221905D01*
X61600000Y-72298095D01*
X61333334Y-72488571D02*
X61028572Y-72488571D01*
X61219048Y-72221905D02*
X61219048Y-72907619D01*
X61180953Y-72983810D01*
X61104762Y-73021905D01*
X61028572Y-73021905D01*
X60761905Y-73021905D02*
X60761905Y-72221905D01*
X60419048Y-73021905D02*
X60419048Y-72602857D01*
X60457143Y-72526667D01*
X60533333Y-72488571D01*
X60647619Y-72488571D01*
X60723810Y-72526667D01*
X60761905Y-72564762D01*
X59695238Y-72488571D02*
X59695238Y-73021905D01*
X60038095Y-72488571D02*
X60038095Y-72907619D01*
X60000000Y-72983810D01*
X59923809Y-73021905D01*
X59809523Y-73021905D01*
X59733333Y-72983810D01*
X59695238Y-72945714D01*
X59314285Y-73021905D02*
X59314285Y-72221905D01*
X59314285Y-72526667D02*
X59238094Y-72488571D01*
X59085713Y-72488571D01*
X59009523Y-72526667D01*
X58971428Y-72564762D01*
X58933332Y-72640952D01*
X58933332Y-72869524D01*
X58971428Y-72945714D01*
X59009523Y-72983810D01*
X59085713Y-73021905D01*
X59238094Y-73021905D01*
X59314285Y-72983810D01*
X58590475Y-72945714D02*
X58552380Y-72983810D01*
X58590475Y-73021905D01*
X58628570Y-72983810D01*
X58590475Y-72945714D01*
X58590475Y-73021905D01*
X57866666Y-72983810D02*
X57942856Y-73021905D01*
X58095237Y-73021905D01*
X58171428Y-72983810D01*
X58209523Y-72945714D01*
X58247618Y-72869524D01*
X58247618Y-72640952D01*
X58209523Y-72564762D01*
X58171428Y-72526667D01*
X58095237Y-72488571D01*
X57942856Y-72488571D01*
X57866666Y-72526667D01*
X57409523Y-73021905D02*
X57485714Y-72983810D01*
X57523809Y-72945714D01*
X57561904Y-72869524D01*
X57561904Y-72640952D01*
X57523809Y-72564762D01*
X57485714Y-72526667D01*
X57409523Y-72488571D01*
X57295237Y-72488571D01*
X57219047Y-72526667D01*
X57180952Y-72564762D01*
X57142856Y-72640952D01*
X57142856Y-72869524D01*
X57180952Y-72945714D01*
X57219047Y-72983810D01*
X57295237Y-73021905D01*
X57409523Y-73021905D01*
X56799999Y-73021905D02*
X56799999Y-72488571D01*
X56799999Y-72564762D02*
X56761904Y-72526667D01*
X56685713Y-72488571D01*
X56571427Y-72488571D01*
X56495237Y-72526667D01*
X56457142Y-72602857D01*
X56457142Y-73021905D01*
X56457142Y-72602857D02*
X56419046Y-72526667D01*
X56342856Y-72488571D01*
X56228570Y-72488571D01*
X56152380Y-72526667D01*
X56114285Y-72602857D01*
X56114285Y-73021905D01*
X55161903Y-72183810D02*
X55847618Y-73212381D01*
X54590475Y-72983810D02*
X54666665Y-73021905D01*
X54819046Y-73021905D01*
X54895237Y-72983810D01*
X54933332Y-72907619D01*
X54933332Y-72602857D01*
X54895237Y-72526667D01*
X54819046Y-72488571D01*
X54666665Y-72488571D01*
X54590475Y-72526667D01*
X54552380Y-72602857D01*
X54552380Y-72679048D01*
X54933332Y-72755238D01*
X54209523Y-73021905D02*
X54209523Y-72488571D01*
X54209523Y-72564762D02*
X54171428Y-72526667D01*
X54095237Y-72488571D01*
X53980951Y-72488571D01*
X53904761Y-72526667D01*
X53866666Y-72602857D01*
X53866666Y-73021905D01*
X53866666Y-72602857D02*
X53828570Y-72526667D01*
X53752380Y-72488571D01*
X53638094Y-72488571D01*
X53561904Y-72526667D01*
X53523809Y-72602857D01*
X53523809Y-73021905D01*
X52799999Y-72983810D02*
X52876189Y-73021905D01*
X53028570Y-73021905D01*
X53104761Y-72983810D01*
X53142856Y-72945714D01*
X53180951Y-72869524D01*
X53180951Y-72640952D01*
X53142856Y-72564762D01*
X53104761Y-72526667D01*
X53028570Y-72488571D01*
X52876189Y-72488571D01*
X52799999Y-72526667D01*
X52495237Y-72298095D02*
X52457142Y-72260000D01*
X52380951Y-72221905D01*
X52190475Y-72221905D01*
X52114285Y-72260000D01*
X52076189Y-72298095D01*
X52038094Y-72374286D01*
X52038094Y-72450476D01*
X52076189Y-72564762D01*
X52533332Y-73021905D01*
X52038094Y-73021905D01*
X51352380Y-72983810D02*
X51428570Y-73021905D01*
X51580951Y-73021905D01*
X51657142Y-72983810D01*
X51695237Y-72945714D01*
X51733332Y-72869524D01*
X51733332Y-72640952D01*
X51695237Y-72564762D01*
X51657142Y-72526667D01*
X51580951Y-72488571D01*
X51428570Y-72488571D01*
X51352380Y-72526667D01*
X50666666Y-72488571D02*
X50666666Y-73021905D01*
X51009523Y-72488571D02*
X51009523Y-72907619D01*
X50971428Y-72983810D01*
X50895237Y-73021905D01*
X50780951Y-73021905D01*
X50704761Y-72983810D01*
X50666666Y-72945714D01*
X50285713Y-73021905D02*
X50285713Y-72221905D01*
X50285713Y-72526667D02*
X50209522Y-72488571D01*
X50057141Y-72488571D01*
X49980951Y-72526667D01*
X49942856Y-72564762D01*
X49904760Y-72640952D01*
X49904760Y-72869524D01*
X49942856Y-72945714D01*
X49980951Y-72983810D01*
X50057141Y-73021905D01*
X50209522Y-73021905D01*
X50285713Y-72983810D01*
X49257141Y-72983810D02*
X49333331Y-73021905D01*
X49485712Y-73021905D01*
X49561903Y-72983810D01*
X49599998Y-72907619D01*
X49599998Y-72602857D01*
X49561903Y-72526667D01*
X49485712Y-72488571D01*
X49333331Y-72488571D01*
X49257141Y-72526667D01*
X49219046Y-72602857D01*
X49219046Y-72679048D01*
X49599998Y-72755238D01*
D12*
X61071428Y-74607143D02*
X59928571Y-74607143D01*
X56171428Y-38107143D02*
X55028571Y-38107143D01*
X55600000Y-38678571D02*
X55600000Y-37535714D01*
D13*
X62500000Y-64800000D02*
X53500000Y-64800000D01*
X53500000Y-64800000D02*
X53500000Y-47800000D01*
X53500000Y-47800000D02*
X55000000Y-47800000D01*
X55000000Y-47800000D02*
X55000000Y-46800000D01*
X55000000Y-46800000D02*
X61000000Y-46800000D01*
X61000000Y-46800000D02*
X61000000Y-47800000D01*
X61000000Y-47800000D02*
X62500000Y-47800000D01*
X62500000Y-47800000D02*
X62500000Y-64800000D01*
X59035714Y-63678571D02*
X58892857Y-63726190D01*
X58845238Y-63773810D01*
X58797619Y-63869048D01*
X58797619Y-64011905D01*
X58845238Y-64107143D01*
X58892857Y-64154762D01*
X58988095Y-64202381D01*
X59369048Y-64202381D01*
X59369048Y-63202381D01*
X59035714Y-63202381D01*
X58940476Y-63250000D01*
X58892857Y-63297619D01*
X58845238Y-63392857D01*
X58845238Y-63488095D01*
X58892857Y-63583333D01*
X58940476Y-63630952D01*
X59035714Y-63678571D01*
X59369048Y-63678571D01*
X58511905Y-63202381D02*
X57940476Y-63202381D01*
X58226191Y-64202381D02*
X58226191Y-63202381D01*
X57083333Y-64202381D02*
X57654762Y-64202381D01*
X57369048Y-64202381D02*
X57369048Y-63202381D01*
X57464286Y-63345238D01*
X57559524Y-63440476D01*
X57654762Y-63488095D01*
M02*
