G04 #@! TF.FileFunction,Copper,L1,Top,Signal*
%FSLAX46Y46*%
G04 Gerber Fmt 4.6, Leading zero omitted, Abs format (unit mm)*
G04 Created by KiCad (PCBNEW 4.0.2-stable) date Lundi 27 juin 2016 03:17:05*
%MOMM*%
G01*
G04 APERTURE LIST*
%ADD10C,0.100000*%
%ADD11R,2.540000X2.540000*%
%ADD12C,2.540000*%
%ADD13R,0.400000X1.350000*%
%ADD14O,1.250000X0.950000*%
%ADD15O,1.000000X1.550000*%
%ADD16O,2.199640X1.501140*%
%ADD17R,1.500000X1.250000*%
%ADD18R,1.000000X2.000000*%
%ADD19R,1.250000X1.500000*%
%ADD20R,1.300000X1.500000*%
%ADD21R,1.500000X1.300000*%
%ADD22R,0.800100X1.800860*%
%ADD23R,1.550000X0.600000*%
%ADD24R,2.032000X1.727200*%
%ADD25O,2.032000X1.727200*%
%ADD26C,4.064000*%
%ADD27C,0.600000*%
%ADD28C,0.250000*%
%ADD29C,0.254000*%
G04 APERTURE END LIST*
D10*
D11*
X58000000Y-36800000D03*
D12*
X58000000Y-74620000D03*
D13*
X59300900Y-39562540D03*
X58650900Y-39562540D03*
X58000900Y-39562540D03*
X57350900Y-39562540D03*
X56700900Y-39562540D03*
D14*
X60500900Y-39562540D03*
X55500900Y-39562540D03*
D15*
X61500900Y-36862540D03*
X54500900Y-36862540D03*
D16*
X50480000Y-43230000D03*
X50480000Y-45770000D03*
X50480000Y-48310000D03*
X50480000Y-50850000D03*
X50480000Y-53390000D03*
X50480000Y-55930000D03*
X50480000Y-58470000D03*
X50480000Y-61010000D03*
X50480000Y-63550000D03*
X50480000Y-66090000D03*
X50480000Y-68630000D03*
X50480000Y-71170000D03*
X65720000Y-71170000D03*
X65720000Y-68630000D03*
X65720000Y-66090000D03*
X65720000Y-63550000D03*
X65720000Y-61010000D03*
X65720000Y-58470000D03*
X65720000Y-55930000D03*
X65720000Y-53390000D03*
X65720000Y-50850000D03*
X65720000Y-48310000D03*
X65720000Y-45770000D03*
X65720000Y-43230000D03*
X63180000Y-54660000D03*
X63180000Y-52120000D03*
D17*
X62350000Y-63500000D03*
X59850000Y-63500000D03*
D18*
X62500000Y-66400000D03*
X61230000Y-66400000D03*
X59960000Y-66400000D03*
X58690000Y-66400000D03*
X57420000Y-66400000D03*
X56150000Y-66400000D03*
X54880000Y-66400000D03*
X53610000Y-66400000D03*
D19*
X53900000Y-45950000D03*
X53900000Y-48450000D03*
D20*
X53500000Y-52050000D03*
X53500000Y-54750000D03*
D21*
X53950000Y-43000000D03*
X56650000Y-43000000D03*
D22*
X55750000Y-54601140D03*
X57650000Y-54601140D03*
X56700000Y-51598860D03*
D23*
X56800000Y-45295000D03*
X56800000Y-46565000D03*
X56800000Y-47835000D03*
X56800000Y-49105000D03*
X62200000Y-49105000D03*
X62200000Y-47835000D03*
X62200000Y-46565000D03*
X62200000Y-45295000D03*
D19*
X60100000Y-54750000D03*
X60100000Y-52250000D03*
X58000000Y-60750000D03*
X58000000Y-58250000D03*
D20*
X60400000Y-58050000D03*
X60400000Y-60750000D03*
X55600000Y-60750000D03*
X55600000Y-58050000D03*
D24*
X70600000Y-36000000D03*
D25*
X70600000Y-38540000D03*
X70600000Y-41080000D03*
X70600000Y-43620000D03*
D24*
X70600000Y-48900000D03*
D25*
X70600000Y-51440000D03*
X70600000Y-53980000D03*
X70600000Y-56520000D03*
D24*
X70600000Y-61800000D03*
D25*
X70600000Y-64340000D03*
X70600000Y-66880000D03*
X70600000Y-69420000D03*
D26*
X70000000Y-74500000D03*
D27*
X60236400Y-67991000D03*
X54745000Y-64268200D03*
X55611800Y-53198100D03*
D28*
X53950000Y-43000000D02*
X53950000Y-43975300D01*
X60100000Y-54750000D02*
X60575200Y-54750000D01*
X60575200Y-54750000D02*
X61050300Y-54750000D01*
X60575200Y-56799500D02*
X60400000Y-56974700D01*
X60575200Y-54750000D02*
X60575200Y-56799500D01*
X60400000Y-58050000D02*
X60400000Y-56974700D01*
X62200000Y-46565000D02*
X61649900Y-46565000D01*
X62200000Y-45295000D02*
X61099700Y-45295000D01*
X62500000Y-66400000D02*
X62500000Y-65074700D01*
X62350000Y-63500000D02*
X62350000Y-64450300D01*
X62737200Y-64837500D02*
X62350000Y-64450300D01*
X62500000Y-65074700D02*
X62737200Y-64837500D01*
X60925600Y-51139100D02*
X60052300Y-51139100D01*
X61050300Y-51263800D02*
X60925600Y-51139100D01*
X61050300Y-54750000D02*
X61050300Y-51263800D01*
X57650000Y-52856000D02*
X57650000Y-54601100D01*
X59366900Y-51139100D02*
X57650000Y-52856000D01*
X60052300Y-51139100D02*
X59366900Y-51139100D01*
X60052300Y-47835000D02*
X60052300Y-51139100D01*
X61486100Y-46401200D02*
X60052300Y-47835000D01*
X61649900Y-46565000D02*
X61486100Y-46401200D01*
X61099700Y-46014800D02*
X61099700Y-45295000D01*
X61486100Y-46401200D02*
X61099700Y-46014800D01*
X70600000Y-61800000D02*
X69258700Y-61800000D01*
X69258700Y-61920000D02*
X69258700Y-61800000D01*
X66341200Y-64837500D02*
X69258700Y-61920000D01*
X62737200Y-64837500D02*
X66341200Y-64837500D01*
X66257900Y-51925900D02*
X65720000Y-51925900D01*
X67740900Y-53408900D02*
X66257900Y-51925900D01*
X67740900Y-60282200D02*
X67740900Y-53408900D01*
X69258700Y-61800000D02*
X67740900Y-60282200D01*
X65720000Y-51387900D02*
X65720000Y-51149500D01*
X65720000Y-51387900D02*
X65720000Y-51925900D01*
X65720000Y-50850000D02*
X65720000Y-51149500D01*
X64130600Y-47395300D02*
X63300300Y-46565000D01*
X64130600Y-49560100D02*
X64130600Y-47395300D01*
X65720000Y-51149500D02*
X64130600Y-49560100D01*
X62200000Y-46565000D02*
X63300300Y-46565000D01*
X60052300Y-47835000D02*
X56800000Y-47835000D01*
X56800000Y-47835000D02*
X55699700Y-47835000D01*
X53900000Y-44025300D02*
X53900000Y-45950000D01*
X53950000Y-43975300D02*
X53900000Y-44025300D01*
X53500000Y-52050000D02*
X53500000Y-50974700D01*
X52929200Y-50403900D02*
X53500000Y-50974700D01*
X52929200Y-47572000D02*
X52929200Y-50403900D01*
X54183000Y-46318200D02*
X52929200Y-47572000D01*
X55699700Y-47835000D02*
X54183000Y-46318200D01*
X54088700Y-46138700D02*
X53900000Y-45950000D01*
X54088700Y-46224000D02*
X54088700Y-46138700D01*
X54183000Y-46318200D02*
X54088700Y-46224000D01*
X56700000Y-51598900D02*
X56475500Y-51598900D01*
X60100000Y-52250000D02*
X59149700Y-52250000D01*
X56700000Y-51598900D02*
X56700000Y-50373200D01*
X56800000Y-49105000D02*
X55699700Y-49105000D01*
X50480000Y-50850000D02*
X50480000Y-51925900D01*
X53900000Y-48450000D02*
X54850300Y-48450000D01*
X56449900Y-50373200D02*
X56700000Y-50373200D01*
X55699700Y-49623000D02*
X56449900Y-50373200D01*
X55699700Y-49105000D02*
X55699700Y-49623000D01*
X55044700Y-48450000D02*
X55699700Y-49105000D01*
X54850300Y-48450000D02*
X55044700Y-48450000D01*
X58000000Y-58250000D02*
X58000000Y-57712300D01*
X58000000Y-57712300D02*
X58000000Y-57174700D01*
X56913000Y-57712300D02*
X56575300Y-58050000D01*
X58000000Y-57712300D02*
X56913000Y-57712300D01*
X55600000Y-58050000D02*
X56575300Y-58050000D01*
X51509300Y-51925900D02*
X50480000Y-51925900D01*
X52708800Y-53125400D02*
X51509300Y-51925900D01*
X54559100Y-53125400D02*
X52708800Y-53125400D01*
X55138500Y-52546000D02*
X54559100Y-53125400D01*
X56475500Y-52546000D02*
X55138500Y-52546000D01*
X56475500Y-51598900D02*
X56475500Y-52546000D01*
X57558600Y-56299600D02*
X57762200Y-56299600D01*
X56475500Y-55216500D02*
X57558600Y-56299600D01*
X56475500Y-52546000D02*
X56475500Y-55216500D01*
X59149700Y-54912100D02*
X57762200Y-56299600D01*
X59149700Y-52250000D02*
X59149700Y-54912100D01*
X57762200Y-56936900D02*
X58000000Y-57174700D01*
X57762200Y-56299600D02*
X57762200Y-56936900D01*
X60474400Y-65074700D02*
X59850000Y-64450300D01*
X61230000Y-65074700D02*
X60474400Y-65074700D01*
X59850000Y-63500000D02*
X59850000Y-64450300D01*
X61230000Y-66400000D02*
X61230000Y-65074700D01*
X65720000Y-45770000D02*
X65720000Y-45276200D01*
X70600000Y-38540000D02*
X70600000Y-39728900D01*
X56700900Y-39562500D02*
X56700900Y-40562800D01*
X69249000Y-41598800D02*
X65733400Y-45114400D01*
X69249000Y-40559800D02*
X69249000Y-41598800D01*
X70079900Y-39728900D02*
X69249000Y-40559800D01*
X70600000Y-39728900D02*
X70079900Y-39728900D01*
X65733400Y-45262800D02*
X65733400Y-45114400D01*
X65720000Y-45276200D02*
X65733400Y-45262800D01*
X60472400Y-44334300D02*
X56700900Y-40562800D01*
X64953300Y-44334300D02*
X60472400Y-44334300D01*
X65733400Y-45114400D02*
X64953300Y-44334300D01*
X70600000Y-64340000D02*
X70600000Y-65528900D01*
X61230000Y-66400000D02*
X61230000Y-67725300D01*
X64850700Y-74620000D02*
X58000000Y-74620000D01*
X67652500Y-71818200D02*
X64850700Y-74620000D01*
X67652500Y-67528600D02*
X67652500Y-71818200D01*
X69652200Y-65528900D02*
X67652500Y-67528600D01*
X70600000Y-65528900D02*
X69652200Y-65528900D01*
X64294800Y-67725300D02*
X61230000Y-67725300D01*
X64491500Y-67528600D02*
X64294800Y-67725300D01*
X67652500Y-67528600D02*
X64491500Y-67528600D01*
X66257900Y-46845900D02*
X65720000Y-46845900D01*
X68806600Y-49394600D02*
X66257900Y-46845900D01*
X68806600Y-54057800D02*
X68806600Y-49394600D01*
X70079900Y-55331100D02*
X68806600Y-54057800D01*
X70600000Y-55331100D02*
X70079900Y-55331100D01*
X70600000Y-56520000D02*
X70600000Y-55331100D01*
X65720000Y-45770000D02*
X65720000Y-46845900D01*
X59300900Y-39562500D02*
X59300900Y-40562800D01*
X61968100Y-43230000D02*
X59300900Y-40562800D01*
X65720000Y-43230000D02*
X61968100Y-43230000D01*
X59970700Y-67725300D02*
X60236400Y-67991000D01*
X59960000Y-67725300D02*
X59970700Y-67725300D01*
X59960000Y-66400000D02*
X59960000Y-67725300D01*
X62134700Y-71170000D02*
X65720000Y-71170000D01*
X58690000Y-67725300D02*
X62134700Y-71170000D01*
X58690000Y-66400000D02*
X58690000Y-67725300D01*
X57420000Y-64051200D02*
X57420000Y-66400000D01*
X58997100Y-62474100D02*
X57420000Y-64051200D01*
X65720000Y-62474100D02*
X58997100Y-62474100D01*
X65720000Y-63550000D02*
X65720000Y-62474100D01*
X66188800Y-62474100D02*
X65720000Y-62474100D01*
X67162800Y-61500100D02*
X66188800Y-62474100D01*
X67162800Y-55450100D02*
X67162800Y-61500100D01*
X66372700Y-54660000D02*
X67162800Y-55450100D01*
X65085000Y-54660000D02*
X66372700Y-54660000D01*
X64283500Y-53858500D02*
X65085000Y-54660000D01*
X64283500Y-52921500D02*
X64283500Y-53858500D01*
X64657500Y-52547500D02*
X64283500Y-52921500D01*
X64657500Y-51692500D02*
X64657500Y-52547500D01*
X63300300Y-50335300D02*
X64657500Y-51692500D01*
X63300300Y-47835000D02*
X63300300Y-50335300D01*
X62200000Y-47835000D02*
X63300300Y-47835000D01*
X56150000Y-63894600D02*
X56150000Y-66400000D01*
X54624600Y-62369200D02*
X56150000Y-63894600D01*
X54624600Y-59844500D02*
X54624600Y-62369200D01*
X55128400Y-59340700D02*
X54624600Y-59844500D01*
X60970700Y-59340700D02*
X55128400Y-59340700D01*
X61525200Y-58786200D02*
X60970700Y-59340700D01*
X61525200Y-49779800D02*
X61525200Y-58786200D01*
X62200000Y-49105000D02*
X61525200Y-49779800D01*
X60739100Y-72314400D02*
X56150000Y-67725300D01*
X66454700Y-72314400D02*
X60739100Y-72314400D01*
X67164900Y-71604200D02*
X66454700Y-72314400D01*
X67164900Y-70612900D02*
X67164900Y-71604200D01*
X66257900Y-69705900D02*
X67164900Y-70612900D01*
X65720000Y-69705900D02*
X66257900Y-69705900D01*
X65720000Y-68630000D02*
X65720000Y-69705900D01*
X56150000Y-66400000D02*
X56150000Y-67725300D01*
X54745000Y-64939700D02*
X54745000Y-64268200D01*
X54880000Y-65074700D02*
X54745000Y-64939700D01*
X54880000Y-66400000D02*
X54880000Y-65074700D01*
X52972700Y-67725300D02*
X54880000Y-67725300D01*
X52410500Y-67163100D02*
X52972700Y-67725300D01*
X52410500Y-58480600D02*
X52410500Y-67163100D01*
X51129900Y-57200000D02*
X52410500Y-58480600D01*
X49837500Y-57200000D02*
X51129900Y-57200000D01*
X49016000Y-56378500D02*
X49837500Y-57200000D01*
X49016000Y-42808400D02*
X49016000Y-56378500D01*
X49799700Y-42024700D02*
X49016000Y-42808400D01*
X54878300Y-42024700D02*
X49799700Y-42024700D01*
X55198900Y-42345300D02*
X54878300Y-42024700D01*
X55198900Y-46064200D02*
X55198900Y-42345300D01*
X55699700Y-46565000D02*
X55198900Y-46064200D01*
X56800000Y-46565000D02*
X55699700Y-46565000D01*
X54880000Y-66400000D02*
X54880000Y-67725300D01*
X51017900Y-54465900D02*
X50480000Y-54465900D01*
X53610000Y-57058000D02*
X51017900Y-54465900D01*
X53610000Y-65074700D02*
X53610000Y-57058000D01*
X53610000Y-66400000D02*
X53610000Y-65074700D01*
X50480000Y-53390000D02*
X50480000Y-54465900D01*
X49942100Y-67554100D02*
X50480000Y-67554100D01*
X48561700Y-66173700D02*
X49942100Y-67554100D01*
X48561700Y-42564600D02*
X48561700Y-66173700D01*
X49552400Y-41573900D02*
X48561700Y-42564600D01*
X56199200Y-41573900D02*
X49552400Y-41573900D01*
X56650000Y-42024700D02*
X56199200Y-41573900D01*
X56650000Y-43000000D02*
X56650000Y-42024700D01*
X50480000Y-68630000D02*
X50480000Y-67554100D01*
X56531100Y-43975300D02*
X56650000Y-43975300D01*
X55699700Y-44806700D02*
X56531100Y-43975300D01*
X55699700Y-45295000D02*
X55699700Y-44806700D01*
X56800000Y-45295000D02*
X55699700Y-45295000D01*
X56650000Y-43000000D02*
X56650000Y-43975300D01*
X53500000Y-54750000D02*
X54475300Y-54750000D01*
X55611800Y-54601100D02*
X55611800Y-53198100D01*
X55750000Y-54601100D02*
X55611800Y-54601100D01*
X54624200Y-54601100D02*
X54475300Y-54750000D01*
X55611800Y-54601100D02*
X54624200Y-54601100D01*
X60400000Y-60750000D02*
X59424700Y-60750000D01*
X55600000Y-60750000D02*
X58000000Y-60750000D01*
X58000000Y-60750000D02*
X59424700Y-60750000D01*
X61635300Y-61010000D02*
X61375300Y-60750000D01*
X65720000Y-61010000D02*
X61635300Y-61010000D01*
X60400000Y-60750000D02*
X61375300Y-60750000D01*
X71941400Y-46150300D02*
X70600000Y-44808900D01*
X71941400Y-51969800D02*
X71941400Y-46150300D01*
X71120100Y-52791100D02*
X71941400Y-51969800D01*
X70600000Y-52791100D02*
X71120100Y-52791100D01*
X70600000Y-53980000D02*
X70600000Y-52791100D01*
X70600000Y-43620000D02*
X70600000Y-44808900D01*
X70079900Y-42268900D02*
X70600000Y-42268900D01*
X69258600Y-43090200D02*
X70079900Y-42268900D01*
X69258600Y-49950000D02*
X69258600Y-43090200D01*
X69559700Y-50251100D02*
X69258600Y-49950000D01*
X70600000Y-50251100D02*
X69559700Y-50251100D01*
X70600000Y-51440000D02*
X70600000Y-50251100D01*
X70600000Y-41080000D02*
X70600000Y-42268900D01*
D29*
G36*
X72115409Y-34221376D02*
X72213250Y-34286751D01*
X72278624Y-34384590D01*
X72315000Y-34567466D01*
X72315000Y-45449098D01*
X71665272Y-44799370D01*
X71844415Y-44679670D01*
X72169271Y-44193489D01*
X72283345Y-43620000D01*
X72169271Y-43046511D01*
X71844415Y-42560330D01*
X71529634Y-42350000D01*
X71844415Y-42139670D01*
X72169271Y-41653489D01*
X72283345Y-41080000D01*
X72169271Y-40506511D01*
X71844415Y-40020330D01*
X71534931Y-39813539D01*
X71950732Y-39442036D01*
X72204709Y-38914791D01*
X72207358Y-38899026D01*
X72086217Y-38667000D01*
X70727000Y-38667000D01*
X70727000Y-38687000D01*
X70473000Y-38687000D01*
X70473000Y-38667000D01*
X69113783Y-38667000D01*
X68992642Y-38899026D01*
X68995291Y-38914791D01*
X69249268Y-39442036D01*
X69665069Y-39813539D01*
X69355585Y-40020330D01*
X69030729Y-40506511D01*
X68916655Y-41080000D01*
X69030729Y-41653489D01*
X69266962Y-42007036D01*
X68721199Y-42552799D01*
X68556452Y-42799361D01*
X68498600Y-43090200D01*
X68498600Y-49950000D01*
X68556452Y-50240839D01*
X68721199Y-50487401D01*
X69022299Y-50788501D01*
X69064163Y-50816474D01*
X69030729Y-50866511D01*
X68916655Y-51440000D01*
X69030729Y-52013489D01*
X69355585Y-52499670D01*
X69670366Y-52710000D01*
X69355585Y-52920330D01*
X69030729Y-53406511D01*
X68916655Y-53980000D01*
X69030729Y-54553489D01*
X69355585Y-55039670D01*
X69665069Y-55246461D01*
X69249268Y-55617964D01*
X68995291Y-56145209D01*
X68992642Y-56160974D01*
X69113783Y-56393000D01*
X70473000Y-56393000D01*
X70473000Y-56373000D01*
X70727000Y-56373000D01*
X70727000Y-56393000D01*
X72086217Y-56393000D01*
X72207358Y-56160974D01*
X72204709Y-56145209D01*
X71950732Y-55617964D01*
X71534931Y-55246461D01*
X71844415Y-55039670D01*
X72169271Y-54553489D01*
X72283345Y-53980000D01*
X72169271Y-53406511D01*
X71933038Y-53052964D01*
X72315000Y-52671002D01*
X72315000Y-73118805D01*
X72262291Y-72991239D01*
X71512707Y-72240345D01*
X70532827Y-71833464D01*
X69471828Y-71832538D01*
X68491239Y-72237709D01*
X67740345Y-72987293D01*
X67333464Y-73967173D01*
X67332538Y-75028172D01*
X67737709Y-76008761D01*
X68487293Y-76759655D01*
X68620579Y-76815000D01*
X64627000Y-76815000D01*
X64627000Y-75250000D01*
X64618315Y-75203841D01*
X64591035Y-75161447D01*
X64549410Y-75133006D01*
X64500000Y-75123000D01*
X59847451Y-75123000D01*
X59914261Y-74948964D01*
X59894436Y-74191368D01*
X59642657Y-73583520D01*
X59347777Y-73451828D01*
X58179605Y-74620000D01*
X58193748Y-74634143D01*
X58014143Y-74813748D01*
X58000000Y-74799605D01*
X57985858Y-74813748D01*
X57806253Y-74634143D01*
X57820395Y-74620000D01*
X56652223Y-73451828D01*
X56357343Y-73583520D01*
X56085739Y-74291036D01*
X56105564Y-75048632D01*
X56136368Y-75123000D01*
X51750000Y-75123000D01*
X51703841Y-75131685D01*
X51661447Y-75158965D01*
X51633006Y-75200590D01*
X51623000Y-75250000D01*
X51623000Y-76815000D01*
X49067466Y-76815000D01*
X48884590Y-76778624D01*
X48786751Y-76713250D01*
X48721376Y-76615409D01*
X48685000Y-76432534D01*
X48685000Y-73272223D01*
X56831828Y-73272223D01*
X58000000Y-74440395D01*
X59168172Y-73272223D01*
X59036480Y-72977343D01*
X58328964Y-72705739D01*
X57571368Y-72725564D01*
X56963520Y-72977343D01*
X56831828Y-73272223D01*
X48685000Y-73272223D01*
X48685000Y-67371802D01*
X49055507Y-67742309D01*
X48816663Y-68099765D01*
X48711193Y-68630000D01*
X48816663Y-69160235D01*
X49117017Y-69609746D01*
X49551412Y-69900000D01*
X49117017Y-70190254D01*
X48816663Y-70639765D01*
X48711193Y-71170000D01*
X48816663Y-71700235D01*
X49117017Y-72149746D01*
X49566528Y-72450100D01*
X50096763Y-72555570D01*
X50863237Y-72555570D01*
X51393472Y-72450100D01*
X51842983Y-72149746D01*
X52143337Y-71700235D01*
X52248807Y-71170000D01*
X52143337Y-70639765D01*
X51842983Y-70190254D01*
X51408588Y-69900000D01*
X51842983Y-69609746D01*
X52143337Y-69160235D01*
X52248807Y-68630000D01*
X52143337Y-68099765D01*
X51883520Y-67710922D01*
X52435299Y-68262701D01*
X52681861Y-68427448D01*
X52972700Y-68485300D01*
X54880000Y-68485300D01*
X55170839Y-68427448D01*
X55417401Y-68262701D01*
X55515000Y-68116633D01*
X55612599Y-68262701D01*
X60201699Y-72851801D01*
X60448260Y-73016548D01*
X60496514Y-73026146D01*
X60739100Y-73074400D01*
X66454700Y-73074400D01*
X66745539Y-73016548D01*
X66992101Y-72851801D01*
X67702301Y-72141601D01*
X67867048Y-71895040D01*
X67890528Y-71776999D01*
X67924900Y-71604200D01*
X67924900Y-70612900D01*
X67867048Y-70322061D01*
X67702301Y-70075499D01*
X67144493Y-69517691D01*
X67383337Y-69160235D01*
X67488807Y-68630000D01*
X67383337Y-68099765D01*
X67082983Y-67650254D01*
X66648588Y-67360000D01*
X67082983Y-67069746D01*
X67209767Y-66880000D01*
X68916655Y-66880000D01*
X69030729Y-67453489D01*
X69355585Y-67939670D01*
X69670366Y-68150000D01*
X69355585Y-68360330D01*
X69030729Y-68846511D01*
X68916655Y-69420000D01*
X69030729Y-69993489D01*
X69355585Y-70479670D01*
X69841766Y-70804526D01*
X70415255Y-70918600D01*
X70784745Y-70918600D01*
X71358234Y-70804526D01*
X71844415Y-70479670D01*
X72169271Y-69993489D01*
X72283345Y-69420000D01*
X72169271Y-68846511D01*
X71844415Y-68360330D01*
X71529634Y-68150000D01*
X71844415Y-67939670D01*
X72169271Y-67453489D01*
X72283345Y-66880000D01*
X72169271Y-66306511D01*
X71844415Y-65820330D01*
X71534931Y-65613539D01*
X71950732Y-65242036D01*
X72204709Y-64714791D01*
X72207358Y-64699026D01*
X72086217Y-64467000D01*
X70727000Y-64467000D01*
X70727000Y-64487000D01*
X70473000Y-64487000D01*
X70473000Y-64467000D01*
X69113783Y-64467000D01*
X68992642Y-64699026D01*
X68995291Y-64714791D01*
X69249268Y-65242036D01*
X69665069Y-65613539D01*
X69355585Y-65820330D01*
X69030729Y-66306511D01*
X68916655Y-66880000D01*
X67209767Y-66880000D01*
X67383337Y-66620235D01*
X67488807Y-66090000D01*
X67383337Y-65559765D01*
X67107122Y-65146380D01*
X69130931Y-63122571D01*
X69332110Y-63260031D01*
X69426927Y-63279232D01*
X69249268Y-63437964D01*
X68995291Y-63965209D01*
X68992642Y-63980974D01*
X69113783Y-64213000D01*
X70473000Y-64213000D01*
X70473000Y-64193000D01*
X70727000Y-64193000D01*
X70727000Y-64213000D01*
X72086217Y-64213000D01*
X72207358Y-63980974D01*
X72204709Y-63965209D01*
X71950732Y-63437964D01*
X71775155Y-63281093D01*
X71851317Y-63266762D01*
X72067441Y-63127690D01*
X72212431Y-62915490D01*
X72263440Y-62663600D01*
X72263440Y-60936400D01*
X72219162Y-60701083D01*
X72080090Y-60484959D01*
X71867890Y-60339969D01*
X71616000Y-60288960D01*
X69584000Y-60288960D01*
X69348683Y-60333238D01*
X69132559Y-60472310D01*
X69081110Y-60547608D01*
X68500900Y-59967398D01*
X68500900Y-56879026D01*
X68992642Y-56879026D01*
X68995291Y-56894791D01*
X69249268Y-57422036D01*
X69685680Y-57811954D01*
X70238087Y-58005184D01*
X70473000Y-57860924D01*
X70473000Y-56647000D01*
X70727000Y-56647000D01*
X70727000Y-57860924D01*
X70961913Y-58005184D01*
X71514320Y-57811954D01*
X71950732Y-57422036D01*
X72204709Y-56894791D01*
X72207358Y-56879026D01*
X72086217Y-56647000D01*
X70727000Y-56647000D01*
X70473000Y-56647000D01*
X69113783Y-56647000D01*
X68992642Y-56879026D01*
X68500900Y-56879026D01*
X68500900Y-53408900D01*
X68443048Y-53118061D01*
X68278301Y-52871499D01*
X67144493Y-51737691D01*
X67383337Y-51380235D01*
X67488807Y-50850000D01*
X67383337Y-50319765D01*
X67082983Y-49870254D01*
X66648588Y-49580000D01*
X67082983Y-49289746D01*
X67383337Y-48840235D01*
X67488807Y-48310000D01*
X67383337Y-47779765D01*
X67082983Y-47330254D01*
X66633472Y-47029900D01*
X66625928Y-47028399D01*
X66716817Y-47001499D01*
X67138798Y-46659944D01*
X67397950Y-46182903D01*
X67412133Y-46111275D01*
X67289479Y-45897000D01*
X65847000Y-45897000D01*
X65847000Y-45917000D01*
X65593000Y-45917000D01*
X65593000Y-45897000D01*
X64150521Y-45897000D01*
X64027867Y-46111275D01*
X64042050Y-46182903D01*
X64100383Y-46290281D01*
X63837701Y-46027599D01*
X63591139Y-45862852D01*
X63564188Y-45857491D01*
X63571431Y-45846890D01*
X63622440Y-45595000D01*
X63622440Y-44995000D01*
X63578162Y-44759683D01*
X63439090Y-44543559D01*
X63226890Y-44398569D01*
X62975000Y-44347560D01*
X61425000Y-44347560D01*
X61189683Y-44391838D01*
X60973559Y-44530910D01*
X60950484Y-44564681D01*
X60808861Y-44592852D01*
X60562299Y-44757599D01*
X60397552Y-45004161D01*
X60339700Y-45295000D01*
X60339700Y-46014800D01*
X60397552Y-46305639D01*
X60441334Y-46371164D01*
X59737498Y-47075000D01*
X58179914Y-47075000D01*
X58222440Y-46865000D01*
X58222440Y-46265000D01*
X58178162Y-46029683D01*
X58114322Y-45930472D01*
X58171431Y-45846890D01*
X58222440Y-45595000D01*
X58222440Y-44995000D01*
X58178162Y-44759683D01*
X58039090Y-44543559D01*
X57826890Y-44398569D01*
X57575000Y-44347560D01*
X57297744Y-44347560D01*
X57331233Y-44297440D01*
X57400000Y-44297440D01*
X57635317Y-44253162D01*
X57851441Y-44114090D01*
X57996431Y-43901890D01*
X58047440Y-43650000D01*
X58047440Y-42350000D01*
X58003162Y-42114683D01*
X57864090Y-41898559D01*
X57651890Y-41753569D01*
X57400000Y-41702560D01*
X57331234Y-41702560D01*
X57187401Y-41487299D01*
X56736601Y-41036499D01*
X56490039Y-40871752D01*
X56450753Y-40863937D01*
X56600900Y-40713790D01*
X56600900Y-40555473D01*
X56686810Y-40688981D01*
X56899010Y-40833971D01*
X56926685Y-40839575D01*
X56959650Y-40872540D01*
X57027210Y-40872540D01*
X57047653Y-40864072D01*
X57150900Y-40884980D01*
X57550900Y-40884980D01*
X57680489Y-40860596D01*
X57800900Y-40884980D01*
X58200900Y-40884980D01*
X58330489Y-40860596D01*
X58450900Y-40884980D01*
X58619693Y-40884980D01*
X58763499Y-41100201D01*
X61430699Y-43767401D01*
X61677260Y-43932148D01*
X61725514Y-43941746D01*
X61968100Y-43990000D01*
X64210187Y-43990000D01*
X64357017Y-44209746D01*
X64806528Y-44510100D01*
X64814072Y-44511601D01*
X64723183Y-44538501D01*
X64301202Y-44880056D01*
X64042050Y-45357097D01*
X64027867Y-45428725D01*
X64150521Y-45643000D01*
X65593000Y-45643000D01*
X65593000Y-45623000D01*
X65847000Y-45623000D01*
X65847000Y-45643000D01*
X67289479Y-45643000D01*
X67412133Y-45428725D01*
X67397950Y-45357097D01*
X67138798Y-44880056D01*
X66716817Y-44538501D01*
X66625928Y-44511601D01*
X66633472Y-44510100D01*
X67082983Y-44209746D01*
X67383337Y-43760235D01*
X67488807Y-43230000D01*
X67383337Y-42699765D01*
X67082983Y-42250254D01*
X66633472Y-41949900D01*
X66103237Y-41844430D01*
X65336763Y-41844430D01*
X64806528Y-41949900D01*
X64357017Y-42250254D01*
X64210187Y-42470000D01*
X62282902Y-42470000D01*
X60485442Y-40672540D01*
X60675585Y-40672540D01*
X61100364Y-40588046D01*
X61460474Y-40347429D01*
X61701091Y-39987319D01*
X61785585Y-39562540D01*
X61701091Y-39137761D01*
X61460474Y-38777651D01*
X61100364Y-38537034D01*
X60675585Y-38452540D01*
X60326215Y-38452540D01*
X60015358Y-38514373D01*
X59964990Y-38436099D01*
X59844600Y-38353840D01*
X59866431Y-38321890D01*
X59917440Y-38070000D01*
X59917440Y-35685000D01*
X60806613Y-35685000D01*
X60698334Y-35757350D01*
X60452297Y-36125570D01*
X60365900Y-36559916D01*
X60365900Y-37165164D01*
X60452297Y-37599510D01*
X60698334Y-37967730D01*
X61066554Y-38213767D01*
X61500900Y-38300164D01*
X61935246Y-38213767D01*
X62303466Y-37967730D01*
X62549503Y-37599510D01*
X62635900Y-37165164D01*
X62635900Y-36559916D01*
X62549503Y-36125570D01*
X62303466Y-35757350D01*
X62195187Y-35685000D01*
X62250000Y-35685000D01*
X62512138Y-35632857D01*
X62734368Y-35484368D01*
X62882857Y-35262138D01*
X62907868Y-35136400D01*
X68936560Y-35136400D01*
X68936560Y-36863600D01*
X68980838Y-37098917D01*
X69119910Y-37315041D01*
X69332110Y-37460031D01*
X69426927Y-37479232D01*
X69249268Y-37637964D01*
X68995291Y-38165209D01*
X68992642Y-38180974D01*
X69113783Y-38413000D01*
X70473000Y-38413000D01*
X70473000Y-38393000D01*
X70727000Y-38393000D01*
X70727000Y-38413000D01*
X72086217Y-38413000D01*
X72207358Y-38180974D01*
X72204709Y-38165209D01*
X71950732Y-37637964D01*
X71775155Y-37481093D01*
X71851317Y-37466762D01*
X72067441Y-37327690D01*
X72212431Y-37115490D01*
X72263440Y-36863600D01*
X72263440Y-35136400D01*
X72219162Y-34901083D01*
X72080090Y-34684959D01*
X71867890Y-34539969D01*
X71616000Y-34488960D01*
X69584000Y-34488960D01*
X69348683Y-34533238D01*
X69132559Y-34672310D01*
X68987569Y-34884510D01*
X68936560Y-35136400D01*
X62907868Y-35136400D01*
X62935000Y-35000000D01*
X62935000Y-34567466D01*
X62965506Y-34414100D01*
X63164100Y-34215506D01*
X63317466Y-34185000D01*
X71932534Y-34185000D01*
X72115409Y-34221376D01*
X72115409Y-34221376D01*
G37*
X72115409Y-34221376D02*
X72213250Y-34286751D01*
X72278624Y-34384590D01*
X72315000Y-34567466D01*
X72315000Y-45449098D01*
X71665272Y-44799370D01*
X71844415Y-44679670D01*
X72169271Y-44193489D01*
X72283345Y-43620000D01*
X72169271Y-43046511D01*
X71844415Y-42560330D01*
X71529634Y-42350000D01*
X71844415Y-42139670D01*
X72169271Y-41653489D01*
X72283345Y-41080000D01*
X72169271Y-40506511D01*
X71844415Y-40020330D01*
X71534931Y-39813539D01*
X71950732Y-39442036D01*
X72204709Y-38914791D01*
X72207358Y-38899026D01*
X72086217Y-38667000D01*
X70727000Y-38667000D01*
X70727000Y-38687000D01*
X70473000Y-38687000D01*
X70473000Y-38667000D01*
X69113783Y-38667000D01*
X68992642Y-38899026D01*
X68995291Y-38914791D01*
X69249268Y-39442036D01*
X69665069Y-39813539D01*
X69355585Y-40020330D01*
X69030729Y-40506511D01*
X68916655Y-41080000D01*
X69030729Y-41653489D01*
X69266962Y-42007036D01*
X68721199Y-42552799D01*
X68556452Y-42799361D01*
X68498600Y-43090200D01*
X68498600Y-49950000D01*
X68556452Y-50240839D01*
X68721199Y-50487401D01*
X69022299Y-50788501D01*
X69064163Y-50816474D01*
X69030729Y-50866511D01*
X68916655Y-51440000D01*
X69030729Y-52013489D01*
X69355585Y-52499670D01*
X69670366Y-52710000D01*
X69355585Y-52920330D01*
X69030729Y-53406511D01*
X68916655Y-53980000D01*
X69030729Y-54553489D01*
X69355585Y-55039670D01*
X69665069Y-55246461D01*
X69249268Y-55617964D01*
X68995291Y-56145209D01*
X68992642Y-56160974D01*
X69113783Y-56393000D01*
X70473000Y-56393000D01*
X70473000Y-56373000D01*
X70727000Y-56373000D01*
X70727000Y-56393000D01*
X72086217Y-56393000D01*
X72207358Y-56160974D01*
X72204709Y-56145209D01*
X71950732Y-55617964D01*
X71534931Y-55246461D01*
X71844415Y-55039670D01*
X72169271Y-54553489D01*
X72283345Y-53980000D01*
X72169271Y-53406511D01*
X71933038Y-53052964D01*
X72315000Y-52671002D01*
X72315000Y-73118805D01*
X72262291Y-72991239D01*
X71512707Y-72240345D01*
X70532827Y-71833464D01*
X69471828Y-71832538D01*
X68491239Y-72237709D01*
X67740345Y-72987293D01*
X67333464Y-73967173D01*
X67332538Y-75028172D01*
X67737709Y-76008761D01*
X68487293Y-76759655D01*
X68620579Y-76815000D01*
X64627000Y-76815000D01*
X64627000Y-75250000D01*
X64618315Y-75203841D01*
X64591035Y-75161447D01*
X64549410Y-75133006D01*
X64500000Y-75123000D01*
X59847451Y-75123000D01*
X59914261Y-74948964D01*
X59894436Y-74191368D01*
X59642657Y-73583520D01*
X59347777Y-73451828D01*
X58179605Y-74620000D01*
X58193748Y-74634143D01*
X58014143Y-74813748D01*
X58000000Y-74799605D01*
X57985858Y-74813748D01*
X57806253Y-74634143D01*
X57820395Y-74620000D01*
X56652223Y-73451828D01*
X56357343Y-73583520D01*
X56085739Y-74291036D01*
X56105564Y-75048632D01*
X56136368Y-75123000D01*
X51750000Y-75123000D01*
X51703841Y-75131685D01*
X51661447Y-75158965D01*
X51633006Y-75200590D01*
X51623000Y-75250000D01*
X51623000Y-76815000D01*
X49067466Y-76815000D01*
X48884590Y-76778624D01*
X48786751Y-76713250D01*
X48721376Y-76615409D01*
X48685000Y-76432534D01*
X48685000Y-73272223D01*
X56831828Y-73272223D01*
X58000000Y-74440395D01*
X59168172Y-73272223D01*
X59036480Y-72977343D01*
X58328964Y-72705739D01*
X57571368Y-72725564D01*
X56963520Y-72977343D01*
X56831828Y-73272223D01*
X48685000Y-73272223D01*
X48685000Y-67371802D01*
X49055507Y-67742309D01*
X48816663Y-68099765D01*
X48711193Y-68630000D01*
X48816663Y-69160235D01*
X49117017Y-69609746D01*
X49551412Y-69900000D01*
X49117017Y-70190254D01*
X48816663Y-70639765D01*
X48711193Y-71170000D01*
X48816663Y-71700235D01*
X49117017Y-72149746D01*
X49566528Y-72450100D01*
X50096763Y-72555570D01*
X50863237Y-72555570D01*
X51393472Y-72450100D01*
X51842983Y-72149746D01*
X52143337Y-71700235D01*
X52248807Y-71170000D01*
X52143337Y-70639765D01*
X51842983Y-70190254D01*
X51408588Y-69900000D01*
X51842983Y-69609746D01*
X52143337Y-69160235D01*
X52248807Y-68630000D01*
X52143337Y-68099765D01*
X51883520Y-67710922D01*
X52435299Y-68262701D01*
X52681861Y-68427448D01*
X52972700Y-68485300D01*
X54880000Y-68485300D01*
X55170839Y-68427448D01*
X55417401Y-68262701D01*
X55515000Y-68116633D01*
X55612599Y-68262701D01*
X60201699Y-72851801D01*
X60448260Y-73016548D01*
X60496514Y-73026146D01*
X60739100Y-73074400D01*
X66454700Y-73074400D01*
X66745539Y-73016548D01*
X66992101Y-72851801D01*
X67702301Y-72141601D01*
X67867048Y-71895040D01*
X67890528Y-71776999D01*
X67924900Y-71604200D01*
X67924900Y-70612900D01*
X67867048Y-70322061D01*
X67702301Y-70075499D01*
X67144493Y-69517691D01*
X67383337Y-69160235D01*
X67488807Y-68630000D01*
X67383337Y-68099765D01*
X67082983Y-67650254D01*
X66648588Y-67360000D01*
X67082983Y-67069746D01*
X67209767Y-66880000D01*
X68916655Y-66880000D01*
X69030729Y-67453489D01*
X69355585Y-67939670D01*
X69670366Y-68150000D01*
X69355585Y-68360330D01*
X69030729Y-68846511D01*
X68916655Y-69420000D01*
X69030729Y-69993489D01*
X69355585Y-70479670D01*
X69841766Y-70804526D01*
X70415255Y-70918600D01*
X70784745Y-70918600D01*
X71358234Y-70804526D01*
X71844415Y-70479670D01*
X72169271Y-69993489D01*
X72283345Y-69420000D01*
X72169271Y-68846511D01*
X71844415Y-68360330D01*
X71529634Y-68150000D01*
X71844415Y-67939670D01*
X72169271Y-67453489D01*
X72283345Y-66880000D01*
X72169271Y-66306511D01*
X71844415Y-65820330D01*
X71534931Y-65613539D01*
X71950732Y-65242036D01*
X72204709Y-64714791D01*
X72207358Y-64699026D01*
X72086217Y-64467000D01*
X70727000Y-64467000D01*
X70727000Y-64487000D01*
X70473000Y-64487000D01*
X70473000Y-64467000D01*
X69113783Y-64467000D01*
X68992642Y-64699026D01*
X68995291Y-64714791D01*
X69249268Y-65242036D01*
X69665069Y-65613539D01*
X69355585Y-65820330D01*
X69030729Y-66306511D01*
X68916655Y-66880000D01*
X67209767Y-66880000D01*
X67383337Y-66620235D01*
X67488807Y-66090000D01*
X67383337Y-65559765D01*
X67107122Y-65146380D01*
X69130931Y-63122571D01*
X69332110Y-63260031D01*
X69426927Y-63279232D01*
X69249268Y-63437964D01*
X68995291Y-63965209D01*
X68992642Y-63980974D01*
X69113783Y-64213000D01*
X70473000Y-64213000D01*
X70473000Y-64193000D01*
X70727000Y-64193000D01*
X70727000Y-64213000D01*
X72086217Y-64213000D01*
X72207358Y-63980974D01*
X72204709Y-63965209D01*
X71950732Y-63437964D01*
X71775155Y-63281093D01*
X71851317Y-63266762D01*
X72067441Y-63127690D01*
X72212431Y-62915490D01*
X72263440Y-62663600D01*
X72263440Y-60936400D01*
X72219162Y-60701083D01*
X72080090Y-60484959D01*
X71867890Y-60339969D01*
X71616000Y-60288960D01*
X69584000Y-60288960D01*
X69348683Y-60333238D01*
X69132559Y-60472310D01*
X69081110Y-60547608D01*
X68500900Y-59967398D01*
X68500900Y-56879026D01*
X68992642Y-56879026D01*
X68995291Y-56894791D01*
X69249268Y-57422036D01*
X69685680Y-57811954D01*
X70238087Y-58005184D01*
X70473000Y-57860924D01*
X70473000Y-56647000D01*
X70727000Y-56647000D01*
X70727000Y-57860924D01*
X70961913Y-58005184D01*
X71514320Y-57811954D01*
X71950732Y-57422036D01*
X72204709Y-56894791D01*
X72207358Y-56879026D01*
X72086217Y-56647000D01*
X70727000Y-56647000D01*
X70473000Y-56647000D01*
X69113783Y-56647000D01*
X68992642Y-56879026D01*
X68500900Y-56879026D01*
X68500900Y-53408900D01*
X68443048Y-53118061D01*
X68278301Y-52871499D01*
X67144493Y-51737691D01*
X67383337Y-51380235D01*
X67488807Y-50850000D01*
X67383337Y-50319765D01*
X67082983Y-49870254D01*
X66648588Y-49580000D01*
X67082983Y-49289746D01*
X67383337Y-48840235D01*
X67488807Y-48310000D01*
X67383337Y-47779765D01*
X67082983Y-47330254D01*
X66633472Y-47029900D01*
X66625928Y-47028399D01*
X66716817Y-47001499D01*
X67138798Y-46659944D01*
X67397950Y-46182903D01*
X67412133Y-46111275D01*
X67289479Y-45897000D01*
X65847000Y-45897000D01*
X65847000Y-45917000D01*
X65593000Y-45917000D01*
X65593000Y-45897000D01*
X64150521Y-45897000D01*
X64027867Y-46111275D01*
X64042050Y-46182903D01*
X64100383Y-46290281D01*
X63837701Y-46027599D01*
X63591139Y-45862852D01*
X63564188Y-45857491D01*
X63571431Y-45846890D01*
X63622440Y-45595000D01*
X63622440Y-44995000D01*
X63578162Y-44759683D01*
X63439090Y-44543559D01*
X63226890Y-44398569D01*
X62975000Y-44347560D01*
X61425000Y-44347560D01*
X61189683Y-44391838D01*
X60973559Y-44530910D01*
X60950484Y-44564681D01*
X60808861Y-44592852D01*
X60562299Y-44757599D01*
X60397552Y-45004161D01*
X60339700Y-45295000D01*
X60339700Y-46014800D01*
X60397552Y-46305639D01*
X60441334Y-46371164D01*
X59737498Y-47075000D01*
X58179914Y-47075000D01*
X58222440Y-46865000D01*
X58222440Y-46265000D01*
X58178162Y-46029683D01*
X58114322Y-45930472D01*
X58171431Y-45846890D01*
X58222440Y-45595000D01*
X58222440Y-44995000D01*
X58178162Y-44759683D01*
X58039090Y-44543559D01*
X57826890Y-44398569D01*
X57575000Y-44347560D01*
X57297744Y-44347560D01*
X57331233Y-44297440D01*
X57400000Y-44297440D01*
X57635317Y-44253162D01*
X57851441Y-44114090D01*
X57996431Y-43901890D01*
X58047440Y-43650000D01*
X58047440Y-42350000D01*
X58003162Y-42114683D01*
X57864090Y-41898559D01*
X57651890Y-41753569D01*
X57400000Y-41702560D01*
X57331234Y-41702560D01*
X57187401Y-41487299D01*
X56736601Y-41036499D01*
X56490039Y-40871752D01*
X56450753Y-40863937D01*
X56600900Y-40713790D01*
X56600900Y-40555473D01*
X56686810Y-40688981D01*
X56899010Y-40833971D01*
X56926685Y-40839575D01*
X56959650Y-40872540D01*
X57027210Y-40872540D01*
X57047653Y-40864072D01*
X57150900Y-40884980D01*
X57550900Y-40884980D01*
X57680489Y-40860596D01*
X57800900Y-40884980D01*
X58200900Y-40884980D01*
X58330489Y-40860596D01*
X58450900Y-40884980D01*
X58619693Y-40884980D01*
X58763499Y-41100201D01*
X61430699Y-43767401D01*
X61677260Y-43932148D01*
X61725514Y-43941746D01*
X61968100Y-43990000D01*
X64210187Y-43990000D01*
X64357017Y-44209746D01*
X64806528Y-44510100D01*
X64814072Y-44511601D01*
X64723183Y-44538501D01*
X64301202Y-44880056D01*
X64042050Y-45357097D01*
X64027867Y-45428725D01*
X64150521Y-45643000D01*
X65593000Y-45643000D01*
X65593000Y-45623000D01*
X65847000Y-45623000D01*
X65847000Y-45643000D01*
X67289479Y-45643000D01*
X67412133Y-45428725D01*
X67397950Y-45357097D01*
X67138798Y-44880056D01*
X66716817Y-44538501D01*
X66625928Y-44511601D01*
X66633472Y-44510100D01*
X67082983Y-44209746D01*
X67383337Y-43760235D01*
X67488807Y-43230000D01*
X67383337Y-42699765D01*
X67082983Y-42250254D01*
X66633472Y-41949900D01*
X66103237Y-41844430D01*
X65336763Y-41844430D01*
X64806528Y-41949900D01*
X64357017Y-42250254D01*
X64210187Y-42470000D01*
X62282902Y-42470000D01*
X60485442Y-40672540D01*
X60675585Y-40672540D01*
X61100364Y-40588046D01*
X61460474Y-40347429D01*
X61701091Y-39987319D01*
X61785585Y-39562540D01*
X61701091Y-39137761D01*
X61460474Y-38777651D01*
X61100364Y-38537034D01*
X60675585Y-38452540D01*
X60326215Y-38452540D01*
X60015358Y-38514373D01*
X59964990Y-38436099D01*
X59844600Y-38353840D01*
X59866431Y-38321890D01*
X59917440Y-38070000D01*
X59917440Y-35685000D01*
X60806613Y-35685000D01*
X60698334Y-35757350D01*
X60452297Y-36125570D01*
X60365900Y-36559916D01*
X60365900Y-37165164D01*
X60452297Y-37599510D01*
X60698334Y-37967730D01*
X61066554Y-38213767D01*
X61500900Y-38300164D01*
X61935246Y-38213767D01*
X62303466Y-37967730D01*
X62549503Y-37599510D01*
X62635900Y-37165164D01*
X62635900Y-36559916D01*
X62549503Y-36125570D01*
X62303466Y-35757350D01*
X62195187Y-35685000D01*
X62250000Y-35685000D01*
X62512138Y-35632857D01*
X62734368Y-35484368D01*
X62882857Y-35262138D01*
X62907868Y-35136400D01*
X68936560Y-35136400D01*
X68936560Y-36863600D01*
X68980838Y-37098917D01*
X69119910Y-37315041D01*
X69332110Y-37460031D01*
X69426927Y-37479232D01*
X69249268Y-37637964D01*
X68995291Y-38165209D01*
X68992642Y-38180974D01*
X69113783Y-38413000D01*
X70473000Y-38413000D01*
X70473000Y-38393000D01*
X70727000Y-38393000D01*
X70727000Y-38413000D01*
X72086217Y-38413000D01*
X72207358Y-38180974D01*
X72204709Y-38165209D01*
X71950732Y-37637964D01*
X71775155Y-37481093D01*
X71851317Y-37466762D01*
X72067441Y-37327690D01*
X72212431Y-37115490D01*
X72263440Y-36863600D01*
X72263440Y-35136400D01*
X72219162Y-34901083D01*
X72080090Y-34684959D01*
X71867890Y-34539969D01*
X71616000Y-34488960D01*
X69584000Y-34488960D01*
X69348683Y-34533238D01*
X69132559Y-34672310D01*
X68987569Y-34884510D01*
X68936560Y-35136400D01*
X62907868Y-35136400D01*
X62935000Y-35000000D01*
X62935000Y-34567466D01*
X62965506Y-34414100D01*
X63164100Y-34215506D01*
X63317466Y-34185000D01*
X71932534Y-34185000D01*
X72115409Y-34221376D01*
G36*
X61135910Y-64576441D02*
X61348110Y-64721431D01*
X61563260Y-64765000D01*
X61515750Y-64765000D01*
X61357000Y-64923750D01*
X61357000Y-65378075D01*
X61352560Y-65400000D01*
X61352560Y-67400000D01*
X61357000Y-67423597D01*
X61357000Y-67876250D01*
X61515750Y-68035000D01*
X61856309Y-68035000D01*
X61883320Y-68023812D01*
X62000000Y-68047440D01*
X63000000Y-68047440D01*
X63235317Y-68003162D01*
X63451441Y-67864090D01*
X63596431Y-67651890D01*
X63647440Y-67400000D01*
X63647440Y-65597500D01*
X64049157Y-65597500D01*
X63951193Y-66090000D01*
X64056663Y-66620235D01*
X64357017Y-67069746D01*
X64791412Y-67360000D01*
X64357017Y-67650254D01*
X64056663Y-68099765D01*
X63951193Y-68630000D01*
X64056663Y-69160235D01*
X64357017Y-69609746D01*
X64791412Y-69900000D01*
X64357017Y-70190254D01*
X64210187Y-70410000D01*
X62449502Y-70410000D01*
X60794506Y-68755004D01*
X61028592Y-68521327D01*
X61171238Y-68177799D01*
X61171562Y-67805833D01*
X61103000Y-67639900D01*
X61103000Y-67421925D01*
X61107440Y-67400000D01*
X61107440Y-65400000D01*
X61103000Y-65376403D01*
X61103000Y-64923750D01*
X60944250Y-64765000D01*
X60603691Y-64765000D01*
X60576680Y-64776188D01*
X60496740Y-64760000D01*
X60726309Y-64760000D01*
X60959698Y-64663327D01*
X61100936Y-64522090D01*
X61135910Y-64576441D01*
X61135910Y-64576441D01*
G37*
X61135910Y-64576441D02*
X61348110Y-64721431D01*
X61563260Y-64765000D01*
X61515750Y-64765000D01*
X61357000Y-64923750D01*
X61357000Y-65378075D01*
X61352560Y-65400000D01*
X61352560Y-67400000D01*
X61357000Y-67423597D01*
X61357000Y-67876250D01*
X61515750Y-68035000D01*
X61856309Y-68035000D01*
X61883320Y-68023812D01*
X62000000Y-68047440D01*
X63000000Y-68047440D01*
X63235317Y-68003162D01*
X63451441Y-67864090D01*
X63596431Y-67651890D01*
X63647440Y-67400000D01*
X63647440Y-65597500D01*
X64049157Y-65597500D01*
X63951193Y-66090000D01*
X64056663Y-66620235D01*
X64357017Y-67069746D01*
X64791412Y-67360000D01*
X64357017Y-67650254D01*
X64056663Y-68099765D01*
X63951193Y-68630000D01*
X64056663Y-69160235D01*
X64357017Y-69609746D01*
X64791412Y-69900000D01*
X64357017Y-70190254D01*
X64210187Y-70410000D01*
X62449502Y-70410000D01*
X60794506Y-68755004D01*
X61028592Y-68521327D01*
X61171238Y-68177799D01*
X61171562Y-67805833D01*
X61103000Y-67639900D01*
X61103000Y-67421925D01*
X61107440Y-67400000D01*
X61107440Y-65400000D01*
X61103000Y-65376403D01*
X61103000Y-64923750D01*
X60944250Y-64765000D01*
X60603691Y-64765000D01*
X60576680Y-64776188D01*
X60496740Y-64760000D01*
X60726309Y-64760000D01*
X60959698Y-64663327D01*
X61100936Y-64522090D01*
X61135910Y-64576441D01*
G36*
X59977000Y-63373000D02*
X59997000Y-63373000D01*
X59997000Y-63627000D01*
X59977000Y-63627000D01*
X59977000Y-63647000D01*
X59723000Y-63647000D01*
X59723000Y-63627000D01*
X59703000Y-63627000D01*
X59703000Y-63373000D01*
X59723000Y-63373000D01*
X59723000Y-63353000D01*
X59977000Y-63353000D01*
X59977000Y-63373000D01*
X59977000Y-63373000D01*
G37*
X59977000Y-63373000D02*
X59997000Y-63373000D01*
X59997000Y-63627000D01*
X59977000Y-63627000D01*
X59977000Y-63647000D01*
X59723000Y-63647000D01*
X59723000Y-63627000D01*
X59703000Y-63627000D01*
X59703000Y-63373000D01*
X59723000Y-63373000D01*
X59723000Y-63353000D01*
X59977000Y-63353000D01*
X59977000Y-63373000D01*
G36*
X58840000Y-53126309D02*
X58936673Y-53359698D01*
X59077910Y-53500936D01*
X59023559Y-53535910D01*
X58878569Y-53748110D01*
X58827560Y-54000000D01*
X58827560Y-55500000D01*
X58871838Y-55735317D01*
X59010910Y-55951441D01*
X59223110Y-56096431D01*
X59475000Y-56147440D01*
X59815200Y-56147440D01*
X59815200Y-56508237D01*
X59714275Y-56659282D01*
X59514683Y-56696838D01*
X59298559Y-56835910D01*
X59153569Y-57048110D01*
X59139687Y-57116662D01*
X58984699Y-56961673D01*
X58751310Y-56865000D01*
X58285750Y-56865000D01*
X58127000Y-57023750D01*
X58127000Y-58123000D01*
X58147000Y-58123000D01*
X58147000Y-58377000D01*
X58127000Y-58377000D01*
X58127000Y-58397000D01*
X57873000Y-58397000D01*
X57873000Y-58377000D01*
X57853000Y-58377000D01*
X57853000Y-58123000D01*
X57873000Y-58123000D01*
X57873000Y-57023750D01*
X57714250Y-56865000D01*
X57248690Y-56865000D01*
X57015301Y-56961673D01*
X56861066Y-57115909D01*
X56788327Y-56940302D01*
X56609699Y-56761673D01*
X56376310Y-56665000D01*
X55885750Y-56665000D01*
X55727000Y-56823750D01*
X55727000Y-57923000D01*
X55747000Y-57923000D01*
X55747000Y-58177000D01*
X55727000Y-58177000D01*
X55727000Y-58197000D01*
X55473000Y-58197000D01*
X55473000Y-58177000D01*
X55453000Y-58177000D01*
X55453000Y-57923000D01*
X55473000Y-57923000D01*
X55473000Y-56823750D01*
X55314250Y-56665000D01*
X54823690Y-56665000D01*
X54590301Y-56761673D01*
X54411673Y-56940302D01*
X54367703Y-57046454D01*
X54312148Y-56767161D01*
X54147401Y-56520599D01*
X53774242Y-56147440D01*
X54150000Y-56147440D01*
X54385317Y-56103162D01*
X54601441Y-55964090D01*
X54746431Y-55751890D01*
X54748827Y-55740056D01*
X54885860Y-55953011D01*
X55098060Y-56098001D01*
X55349950Y-56149010D01*
X56150050Y-56149010D01*
X56385367Y-56104732D01*
X56601491Y-55965660D01*
X56700632Y-55820563D01*
X56785860Y-55953011D01*
X56998060Y-56098001D01*
X57249950Y-56149010D01*
X58050050Y-56149010D01*
X58285367Y-56104732D01*
X58501491Y-55965660D01*
X58646481Y-55753460D01*
X58697490Y-55501570D01*
X58697490Y-53700710D01*
X58653212Y-53465393D01*
X58514140Y-53249269D01*
X58410000Y-53178113D01*
X58410000Y-53170802D01*
X58840000Y-52740802D01*
X58840000Y-53126309D01*
X58840000Y-53126309D01*
G37*
X58840000Y-53126309D02*
X58936673Y-53359698D01*
X59077910Y-53500936D01*
X59023559Y-53535910D01*
X58878569Y-53748110D01*
X58827560Y-54000000D01*
X58827560Y-55500000D01*
X58871838Y-55735317D01*
X59010910Y-55951441D01*
X59223110Y-56096431D01*
X59475000Y-56147440D01*
X59815200Y-56147440D01*
X59815200Y-56508237D01*
X59714275Y-56659282D01*
X59514683Y-56696838D01*
X59298559Y-56835910D01*
X59153569Y-57048110D01*
X59139687Y-57116662D01*
X58984699Y-56961673D01*
X58751310Y-56865000D01*
X58285750Y-56865000D01*
X58127000Y-57023750D01*
X58127000Y-58123000D01*
X58147000Y-58123000D01*
X58147000Y-58377000D01*
X58127000Y-58377000D01*
X58127000Y-58397000D01*
X57873000Y-58397000D01*
X57873000Y-58377000D01*
X57853000Y-58377000D01*
X57853000Y-58123000D01*
X57873000Y-58123000D01*
X57873000Y-57023750D01*
X57714250Y-56865000D01*
X57248690Y-56865000D01*
X57015301Y-56961673D01*
X56861066Y-57115909D01*
X56788327Y-56940302D01*
X56609699Y-56761673D01*
X56376310Y-56665000D01*
X55885750Y-56665000D01*
X55727000Y-56823750D01*
X55727000Y-57923000D01*
X55747000Y-57923000D01*
X55747000Y-58177000D01*
X55727000Y-58177000D01*
X55727000Y-58197000D01*
X55473000Y-58197000D01*
X55473000Y-58177000D01*
X55453000Y-58177000D01*
X55453000Y-57923000D01*
X55473000Y-57923000D01*
X55473000Y-56823750D01*
X55314250Y-56665000D01*
X54823690Y-56665000D01*
X54590301Y-56761673D01*
X54411673Y-56940302D01*
X54367703Y-57046454D01*
X54312148Y-56767161D01*
X54147401Y-56520599D01*
X53774242Y-56147440D01*
X54150000Y-56147440D01*
X54385317Y-56103162D01*
X54601441Y-55964090D01*
X54746431Y-55751890D01*
X54748827Y-55740056D01*
X54885860Y-55953011D01*
X55098060Y-56098001D01*
X55349950Y-56149010D01*
X56150050Y-56149010D01*
X56385367Y-56104732D01*
X56601491Y-55965660D01*
X56700632Y-55820563D01*
X56785860Y-55953011D01*
X56998060Y-56098001D01*
X57249950Y-56149010D01*
X58050050Y-56149010D01*
X58285367Y-56104732D01*
X58501491Y-55965660D01*
X58646481Y-55753460D01*
X58697490Y-55501570D01*
X58697490Y-53700710D01*
X58653212Y-53465393D01*
X58514140Y-53249269D01*
X58410000Y-53178113D01*
X58410000Y-53170802D01*
X58840000Y-52740802D01*
X58840000Y-53126309D01*
G36*
X52169200Y-50403900D02*
X52227052Y-50694739D01*
X52359538Y-50893019D01*
X52253569Y-51048110D01*
X52202560Y-51300000D01*
X52202560Y-52800000D01*
X52246838Y-53035317D01*
X52385910Y-53251441D01*
X52598110Y-53396431D01*
X52611197Y-53399081D01*
X52398559Y-53535910D01*
X52253569Y-53748110D01*
X52202560Y-54000000D01*
X52202560Y-54575758D01*
X51904493Y-54277691D01*
X52143337Y-53920235D01*
X52248807Y-53390000D01*
X52143337Y-52859765D01*
X51842983Y-52410254D01*
X51393472Y-52109900D01*
X51385928Y-52108399D01*
X51476817Y-52081499D01*
X51898798Y-51739944D01*
X52157950Y-51262903D01*
X52172133Y-51191275D01*
X52049479Y-50977000D01*
X50607000Y-50977000D01*
X50607000Y-50997000D01*
X50353000Y-50997000D01*
X50353000Y-50977000D01*
X50333000Y-50977000D01*
X50333000Y-50723000D01*
X50353000Y-50723000D01*
X50353000Y-50703000D01*
X50607000Y-50703000D01*
X50607000Y-50723000D01*
X52049479Y-50723000D01*
X52172133Y-50508725D01*
X52157950Y-50437097D01*
X51898798Y-49960056D01*
X51476817Y-49618501D01*
X51385928Y-49591601D01*
X51393472Y-49590100D01*
X51842983Y-49289746D01*
X52143337Y-48840235D01*
X52169200Y-48710213D01*
X52169200Y-50403900D01*
X52169200Y-50403900D01*
G37*
X52169200Y-50403900D02*
X52227052Y-50694739D01*
X52359538Y-50893019D01*
X52253569Y-51048110D01*
X52202560Y-51300000D01*
X52202560Y-52800000D01*
X52246838Y-53035317D01*
X52385910Y-53251441D01*
X52598110Y-53396431D01*
X52611197Y-53399081D01*
X52398559Y-53535910D01*
X52253569Y-53748110D01*
X52202560Y-54000000D01*
X52202560Y-54575758D01*
X51904493Y-54277691D01*
X52143337Y-53920235D01*
X52248807Y-53390000D01*
X52143337Y-52859765D01*
X51842983Y-52410254D01*
X51393472Y-52109900D01*
X51385928Y-52108399D01*
X51476817Y-52081499D01*
X51898798Y-51739944D01*
X52157950Y-51262903D01*
X52172133Y-51191275D01*
X52049479Y-50977000D01*
X50607000Y-50977000D01*
X50607000Y-50997000D01*
X50353000Y-50997000D01*
X50353000Y-50977000D01*
X50333000Y-50977000D01*
X50333000Y-50723000D01*
X50353000Y-50723000D01*
X50353000Y-50703000D01*
X50607000Y-50703000D01*
X50607000Y-50723000D01*
X52049479Y-50723000D01*
X52172133Y-50508725D01*
X52157950Y-50437097D01*
X51898798Y-49960056D01*
X51476817Y-49618501D01*
X51385928Y-49591601D01*
X51393472Y-49590100D01*
X51842983Y-49289746D01*
X52143337Y-48840235D01*
X52169200Y-48710213D01*
X52169200Y-50403900D01*
G36*
X55162281Y-48372383D02*
X55162292Y-48372390D01*
X55162299Y-48372401D01*
X55284908Y-48454325D01*
X55408837Y-48537138D01*
X55408850Y-48537141D01*
X55408861Y-48537148D01*
X55445602Y-48544456D01*
X55390000Y-48678690D01*
X55390000Y-48819250D01*
X55548750Y-48978000D01*
X56673000Y-48978000D01*
X56673000Y-48958000D01*
X56927000Y-48958000D01*
X56927000Y-48978000D01*
X58051250Y-48978000D01*
X58210000Y-48819250D01*
X58210000Y-48678690D01*
X58175334Y-48595000D01*
X59292300Y-48595000D01*
X59292300Y-50393939D01*
X59076060Y-50436952D01*
X58829499Y-50601699D01*
X57640819Y-51790379D01*
X57576300Y-51725860D01*
X56827000Y-51725860D01*
X56827000Y-52975540D01*
X56890000Y-53038540D01*
X56890000Y-53177747D01*
X56798509Y-53236620D01*
X56699368Y-53381717D01*
X56614140Y-53249269D01*
X56546796Y-53203255D01*
X56546962Y-53012933D01*
X56543642Y-53004898D01*
X56573000Y-52975540D01*
X56573000Y-51725860D01*
X55823700Y-51725860D01*
X55664950Y-51884610D01*
X55664950Y-52263146D01*
X55426633Y-52262938D01*
X55082857Y-52404983D01*
X54819608Y-52667773D01*
X54797440Y-52721159D01*
X54797440Y-51300000D01*
X54753162Y-51064683D01*
X54614090Y-50848559D01*
X54401890Y-50703569D01*
X54186121Y-50659875D01*
X54127486Y-50572120D01*
X55664950Y-50572120D01*
X55664950Y-51313110D01*
X55823700Y-51471860D01*
X56573000Y-51471860D01*
X56573000Y-50222180D01*
X56827000Y-50222180D01*
X56827000Y-51471860D01*
X57576300Y-51471860D01*
X57735050Y-51313110D01*
X57735050Y-50572120D01*
X57638377Y-50338731D01*
X57459748Y-50160103D01*
X57226359Y-50063430D01*
X56985750Y-50063430D01*
X56827000Y-50222180D01*
X56573000Y-50222180D01*
X56414250Y-50063430D01*
X56173641Y-50063430D01*
X55940252Y-50160103D01*
X55761623Y-50338731D01*
X55664950Y-50572120D01*
X54127486Y-50572120D01*
X54037401Y-50437299D01*
X53689200Y-50089098D01*
X53689200Y-49760050D01*
X53773000Y-49676250D01*
X53773000Y-48577000D01*
X54027000Y-48577000D01*
X54027000Y-49676250D01*
X54185750Y-49835000D01*
X54651310Y-49835000D01*
X54884699Y-49738327D01*
X55063327Y-49559698D01*
X55133307Y-49390750D01*
X55390000Y-49390750D01*
X55390000Y-49531310D01*
X55486673Y-49764699D01*
X55665302Y-49943327D01*
X55898691Y-50040000D01*
X56514250Y-50040000D01*
X56673000Y-49881250D01*
X56673000Y-49232000D01*
X56927000Y-49232000D01*
X56927000Y-49881250D01*
X57085750Y-50040000D01*
X57701309Y-50040000D01*
X57934698Y-49943327D01*
X58113327Y-49764699D01*
X58210000Y-49531310D01*
X58210000Y-49390750D01*
X58051250Y-49232000D01*
X56927000Y-49232000D01*
X56673000Y-49232000D01*
X55548750Y-49232000D01*
X55390000Y-49390750D01*
X55133307Y-49390750D01*
X55160000Y-49326309D01*
X55160000Y-48735750D01*
X55001250Y-48577000D01*
X54027000Y-48577000D01*
X53773000Y-48577000D01*
X53753000Y-48577000D01*
X53753000Y-48323000D01*
X53773000Y-48323000D01*
X53773000Y-48303000D01*
X54027000Y-48303000D01*
X54027000Y-48323000D01*
X55001250Y-48323000D01*
X55057077Y-48267173D01*
X55162281Y-48372383D01*
X55162281Y-48372383D01*
G37*
X55162281Y-48372383D02*
X55162292Y-48372390D01*
X55162299Y-48372401D01*
X55284908Y-48454325D01*
X55408837Y-48537138D01*
X55408850Y-48537141D01*
X55408861Y-48537148D01*
X55445602Y-48544456D01*
X55390000Y-48678690D01*
X55390000Y-48819250D01*
X55548750Y-48978000D01*
X56673000Y-48978000D01*
X56673000Y-48958000D01*
X56927000Y-48958000D01*
X56927000Y-48978000D01*
X58051250Y-48978000D01*
X58210000Y-48819250D01*
X58210000Y-48678690D01*
X58175334Y-48595000D01*
X59292300Y-48595000D01*
X59292300Y-50393939D01*
X59076060Y-50436952D01*
X58829499Y-50601699D01*
X57640819Y-51790379D01*
X57576300Y-51725860D01*
X56827000Y-51725860D01*
X56827000Y-52975540D01*
X56890000Y-53038540D01*
X56890000Y-53177747D01*
X56798509Y-53236620D01*
X56699368Y-53381717D01*
X56614140Y-53249269D01*
X56546796Y-53203255D01*
X56546962Y-53012933D01*
X56543642Y-53004898D01*
X56573000Y-52975540D01*
X56573000Y-51725860D01*
X55823700Y-51725860D01*
X55664950Y-51884610D01*
X55664950Y-52263146D01*
X55426633Y-52262938D01*
X55082857Y-52404983D01*
X54819608Y-52667773D01*
X54797440Y-52721159D01*
X54797440Y-51300000D01*
X54753162Y-51064683D01*
X54614090Y-50848559D01*
X54401890Y-50703569D01*
X54186121Y-50659875D01*
X54127486Y-50572120D01*
X55664950Y-50572120D01*
X55664950Y-51313110D01*
X55823700Y-51471860D01*
X56573000Y-51471860D01*
X56573000Y-50222180D01*
X56827000Y-50222180D01*
X56827000Y-51471860D01*
X57576300Y-51471860D01*
X57735050Y-51313110D01*
X57735050Y-50572120D01*
X57638377Y-50338731D01*
X57459748Y-50160103D01*
X57226359Y-50063430D01*
X56985750Y-50063430D01*
X56827000Y-50222180D01*
X56573000Y-50222180D01*
X56414250Y-50063430D01*
X56173641Y-50063430D01*
X55940252Y-50160103D01*
X55761623Y-50338731D01*
X55664950Y-50572120D01*
X54127486Y-50572120D01*
X54037401Y-50437299D01*
X53689200Y-50089098D01*
X53689200Y-49760050D01*
X53773000Y-49676250D01*
X53773000Y-48577000D01*
X54027000Y-48577000D01*
X54027000Y-49676250D01*
X54185750Y-49835000D01*
X54651310Y-49835000D01*
X54884699Y-49738327D01*
X55063327Y-49559698D01*
X55133307Y-49390750D01*
X55390000Y-49390750D01*
X55390000Y-49531310D01*
X55486673Y-49764699D01*
X55665302Y-49943327D01*
X55898691Y-50040000D01*
X56514250Y-50040000D01*
X56673000Y-49881250D01*
X56673000Y-49232000D01*
X56927000Y-49232000D01*
X56927000Y-49881250D01*
X57085750Y-50040000D01*
X57701309Y-50040000D01*
X57934698Y-49943327D01*
X58113327Y-49764699D01*
X58210000Y-49531310D01*
X58210000Y-49390750D01*
X58051250Y-49232000D01*
X56927000Y-49232000D01*
X56673000Y-49232000D01*
X55548750Y-49232000D01*
X55390000Y-49390750D01*
X55133307Y-49390750D01*
X55160000Y-49326309D01*
X55160000Y-48735750D01*
X55001250Y-48577000D01*
X54027000Y-48577000D01*
X53773000Y-48577000D01*
X53753000Y-48577000D01*
X53753000Y-48323000D01*
X53773000Y-48323000D01*
X53773000Y-48303000D01*
X54027000Y-48303000D01*
X54027000Y-48323000D01*
X55001250Y-48323000D01*
X55057077Y-48267173D01*
X55162281Y-48372383D01*
G36*
X60227000Y-52123000D02*
X60247000Y-52123000D01*
X60247000Y-52377000D01*
X60227000Y-52377000D01*
X60227000Y-52397000D01*
X59973000Y-52397000D01*
X59973000Y-52377000D01*
X59953000Y-52377000D01*
X59953000Y-52123000D01*
X59973000Y-52123000D01*
X59973000Y-52103000D01*
X60227000Y-52103000D01*
X60227000Y-52123000D01*
X60227000Y-52123000D01*
G37*
X60227000Y-52123000D02*
X60247000Y-52123000D01*
X60247000Y-52377000D01*
X60227000Y-52377000D01*
X60227000Y-52397000D01*
X59973000Y-52397000D01*
X59973000Y-52377000D01*
X59953000Y-52377000D01*
X59953000Y-52123000D01*
X59973000Y-52123000D01*
X59973000Y-52103000D01*
X60227000Y-52103000D01*
X60227000Y-52123000D01*
M02*
